<svg xmlns="http://www.w3.org/2000/svg" viewBox="0 0 460 460" width="460" height="460">
<rect width="100%" height="100%" fill="#14161a"/>
<polygon points="33.33,228.25 44.66,160.07 41.78,172.58 32.16,236.29" fill="rgb(52,67,84)" stroke="rgb(52,67,84)" stroke-width="0.35"/>
<polygon points="32.87,244.14 40.65,302.4 41.78,299.68 32.16,236.29" fill="rgb(51,66,83)" stroke="rgb(51,66,83)" stroke-width="0.35"/>
<polygon points="401.53,118.54 387.61,97.07 412.03,146.03 419.35,157.6" fill="rgb(81,109,136)" stroke="rgb(81,109,136)" stroke-width="0.35"/>
<polygon points="230,418.8 227.83,430 251.34,427.96 266.05,427.26" fill="rgb(51,66,83)" stroke="rgb(51,66,83)" stroke-width="0.35"/>
<polygon points="426.67,231.75 415.34,299.93 417.39,303.01 426.97,239.8" fill="rgb(52,67,84)" stroke="rgb(52,67,84)" stroke-width="0.35"/>
<polygon points="230,418.8 189.94,426.58 203.4,427.54 227.83,430" fill="rgb(51,66,83)" stroke="rgb(51,66,83)" stroke-width="0.35"/>
<polygon points="369.65,380.24 321.04,405.85 330.67,407.41 369.79,380.42" fill="rgb(51,66,83)" stroke="rgb(51,66,83)" stroke-width="0.35"/>
<polygon points="59.95,115.51 42.28,154.25 50.34,142.82 74.29,94.29" fill="rgb(68,90,113)" stroke="rgb(68,90,113)" stroke-width="0.35"/>
<polygon points="372.19,82.27 402.78,134.39 412.03,146.03 387.61,97.07" fill="rgb(92,124,154)" stroke="rgb(92,124,154)" stroke-width="0.35"/>
<polygon points="87.81,377.73 86.72,377.91 126.35,405.59 137.3,404.22" fill="rgb(51,66,83)" stroke="rgb(51,66,83)" stroke-width="0.35"/>
<polygon points="400.05,344.49 417.72,305.75 417.39,303.01 390.95,356.09" fill="rgb(51,66,83)" stroke="rgb(51,66,83)" stroke-width="0.35"/>
<polygon points="33.33,228.25 32.16,236.29 41.78,299.68 44.66,296.64" fill="rgb(51,66,83)" stroke="rgb(51,66,83)" stroke-width="0.35"/>
<polygon points="230,418.8 266.05,427.26 296.03,420.9 298.78,418.78" fill="rgb(51,66,83)" stroke="rgb(51,66,83)" stroke-width="0.35"/>
<polygon points="90.35,79.76 74.29,94.29 50.34,142.82 60.32,131.35" fill="rgb(77,103,129)" stroke="rgb(77,103,129)" stroke-width="0.35"/>
<polygon points="230,418.8 158.15,417.53 159.51,419.68 189.94,426.58" fill="rgb(51,66,83)" stroke="rgb(51,66,83)" stroke-width="0.35"/>
<polygon points="340.21,61.84 360.27,73.78 333.65,54.41 301.85,42.47" fill="rgb(116,158,197)" stroke="rgb(116,158,197)" stroke-width="0.35"/>
<polygon points="58.47,341.46 68.19,353.23 41.78,299.68 40.65,302.4" fill="rgb(51,66,83)" stroke="rgb(51,66,83)" stroke-width="0.35"/>
<polygon points="124.5,59.93 161.22,41.22 129.33,52.59 104.1,71.51" fill="rgb(106,144,179)" stroke="rgb(106,144,179)" stroke-width="0.35"/>
<polygon points="369.65,380.24 385.71,365.71 349.98,389.56 321.04,405.85" fill="rgb(51,66,83)" stroke="rgb(51,66,83)" stroke-width="0.35"/>
<polygon points="376.9,92.78 373.28,82.09 333.65,54.41 360.27,73.78" fill="rgb(104,141,176)" stroke="rgb(104,141,176)" stroke-width="0.35"/>
<polygon points="400.05,344.49 390.95,356.09 349.98,389.56 385.71,365.71" fill="rgb(51,66,83)" stroke="rgb(51,66,83)" stroke-width="0.35"/>
<polygon points="372.19,82.27 373.28,82.09 398.13,131.49 402.78,134.39" fill="rgb(76,102,127)" stroke="rgb(76,102,127)" stroke-width="0.35"/>
<polygon points="427.13,215.86 419.35,157.6 412.03,146.03 421.2,208.39" fill="rgb(70,92,115)" stroke="rgb(70,92,115)" stroke-width="0.35"/>
<polygon points="87.81,377.73 137.3,404.22 108.97,387.42 72.39,362.93" fill="rgb(51,66,83)" stroke="rgb(51,66,83)" stroke-width="0.35"/>
<polygon points="33.33,228.25 44.66,296.64 42.61,284.09 33.03,220.2" fill="rgb(51,66,83)" stroke="rgb(51,66,83)" stroke-width="0.35"/>
<polygon points="87.32,90.21 104.1,71.51 129.33,52.59 90.21,79.58" fill="rgb(91,122,153)" stroke="rgb(91,122,153)" stroke-width="0.35"/>
<polygon points="58.47,341.46 72.39,362.93 108.97,387.42 68.19,353.23" fill="rgb(51,66,83)" stroke="rgb(51,66,83)" stroke-width="0.35"/>
<polygon points="382.53,356.6 390.95,356.09 417.39,303.01 415.34,299.93" fill="rgb(51,66,83)" stroke="rgb(51,66,83)" stroke-width="0.35"/>
<polygon points="90.35,79.76 60.32,131.35 65.78,128.54 90.21,79.58" fill="rgb(64,85,106)" stroke="rgb(64,85,106)" stroke-width="0.35"/>
<polygon points="340.21,61.84 301.85,42.47 300.49,40.32 332.94,62.17" fill="rgb(111,151,188)" stroke="rgb(111,151,188)" stroke-width="0.35"/>
<polygon points="230,418.8 298.78,418.78 330.67,407.41 321.04,405.85" fill="rgb(51,66,83)" stroke="rgb(51,66,83)" stroke-width="0.35"/>
<polygon points="34.57,212.38 41.3,205.02 50.34,142.82 42.28,154.25" fill="rgb(59,77,97)" stroke="rgb(59,77,97)" stroke-width="0.35"/>
<polygon points="124.5,59.93 132.65,60.39 163.97,39.1 161.22,41.22" fill="rgb(100,135,169)" stroke="rgb(100,135,169)" stroke-width="0.35"/>
<polygon points="230,418.8 137.3,404.22 126.35,405.59 158.15,417.53" fill="rgb(51,66,83)" stroke="rgb(51,66,83)" stroke-width="0.35"/>
<polygon points="77.47,353.89 44.66,296.64 41.78,299.68 68.19,353.23" fill="rgb(51,66,83)" stroke="rgb(51,66,83)" stroke-width="0.35"/>
<polygon points="427.13,215.86 419.35,275.24 418.22,287.42 427.84,223.71" fill="rgb(52,67,84)" stroke="rgb(52,67,84)" stroke-width="0.35"/>
<polygon points="413.34,201 421.2,208.39 412.03,146.03 402.78,134.39" fill="rgb(76,102,127)" stroke="rgb(76,102,127)" stroke-width="0.35"/>
<polygon points="34.57,212.38 33.03,220.2 42.61,284.09 42.28,271.89" fill="rgb(51,66,83)" stroke="rgb(51,66,83)" stroke-width="0.35"/>
<polygon points="376.9,92.78 392.16,129.16 398.13,131.49 373.28,82.09" fill="rgb(83,111,139)" stroke="rgb(83,111,139)" stroke-width="0.35"/>
<polygon points="291.45,47.96 313.1,56.52 300.49,40.32 270.06,33.42" fill="rgb(130,178,221)" stroke="rgb(130,178,221)" stroke-width="0.35"/>
<polygon points="382.53,356.6 415.34,299.93 418.22,287.42 391.81,340.02" fill="rgb(51,66,83)" stroke="rgb(51,66,83)" stroke-width="0.35"/>
<polygon points="49.95,197.78 60.32,131.35 50.34,142.82 41.3,205.02" fill="rgb(64,84,105)" stroke="rgb(64,84,105)" stroke-width="0.35"/>
<polygon points="382.53,356.6 329.44,390.44 349.98,389.56 390.95,356.09" fill="rgb(51,66,83)" stroke="rgb(51,66,83)" stroke-width="0.35"/>
<polygon points="174.7,46.92 193.95,32.74 163.97,39.1 153.08,55.1" fill="rgb(124,170,211)" stroke="rgb(124,170,211)" stroke-width="0.35"/>
<polygon points="87.32,90.21 90.21,79.58 65.78,128.54 72.5,126.32" fill="rgb(70,92,115)" stroke="rgb(70,92,115)" stroke-width="0.35"/>
<polygon points="427.13,215.86 421.2,208.39 412.03,273.13 419.35,275.24" fill="rgb(60,79,99)" stroke="rgb(60,79,99)" stroke-width="0.35"/>
<polygon points="77.47,353.89 68.19,353.23 108.97,387.42 130.56,388.67" fill="rgb(51,66,83)" stroke="rgb(51,66,83)" stroke-width="0.35"/>
<polygon points="77.47,353.89 69.05,337.15 42.61,284.09 44.66,296.64" fill="rgb(51,66,83)" stroke="rgb(51,66,83)" stroke-width="0.35"/>
<polygon points="291.45,47.96 270.06,33.42 256.6,32.46 276.92,50.04" fill="rgb(127,174,217)" stroke="rgb(127,174,217)" stroke-width="0.35"/>
<polygon points="174.7,46.92 189.92,49.27 208.66,32.04 193.95,32.74" fill="rgb(120,164,204)" stroke="rgb(120,164,204)" stroke-width="0.35"/>
<polygon points="376.9,92.78 360.27,73.78 378.96,119.25 392.16,129.16" fill="rgb(111,152,189)" stroke="rgb(111,152,189)" stroke-width="0.35"/>
<polygon points="413.34,201 402.78,134.39 398.13,131.49 406.86,193.39" fill="rgb(68,90,113)" stroke="rgb(68,90,113)" stroke-width="0.35"/>
<polygon points="230,418.8 321.04,405.85 349.98,389.56 329.44,390.44" fill="rgb(51,66,83)" stroke="rgb(51,66,83)" stroke-width="0.35"/>
<polygon points="401.53,316.86 391.81,340.02 418.22,287.42 419.35,275.24" fill="rgb(51,66,83)" stroke="rgb(51,66,83)" stroke-width="0.35"/>
<polygon points="34.57,212.38 42.28,271.89 50.34,269.92 41.3,205.02" fill="rgb(54,69,87)" stroke="rgb(54,69,87)" stroke-width="0.35"/>
<polygon points="233.33,42.72 253.28,47.91 256.6,32.46 232.17,30" fill="rgb(131,180,224)" stroke="rgb(131,180,224)" stroke-width="0.35"/>
<polygon points="230,418.8 130.56,388.67 108.97,387.42 137.3,404.22" fill="rgb(51,66,83)" stroke="rgb(51,66,83)" stroke-width="0.35"/>
<polygon points="340.21,61.84 363.91,109.58 378.96,119.25 360.27,73.78" fill="rgb(121,166,206)" stroke="rgb(121,166,206)" stroke-width="0.35"/>
<polygon points="233.33,42.72 232.17,30 208.66,32.04 213.76,47.56" fill="rgb(132,182,226)" stroke="rgb(132,182,226)" stroke-width="0.35"/>
<polygon points="87.32,90.21 72.5,126.32 86.25,116.65 104.1,71.51" fill="rgb(96,130,162)" stroke="rgb(96,130,162)" stroke-width="0.35"/>
<polygon points="329.91,72.81 332.94,62.17 300.49,40.32 313.1,56.52" fill="rgb(127,174,217)" stroke="rgb(127,174,217)" stroke-width="0.35"/>
<polygon points="49.95,197.78 57.24,190.29 65.78,128.54 60.32,131.35" fill="rgb(58,76,95)" stroke="rgb(58,76,95)" stroke-width="0.35"/>
<polygon points="124.5,59.93 104.1,71.51 86.25,116.65 101.81,107.25" fill="rgb(107,145,181)" stroke="rgb(107,145,181)" stroke-width="0.35"/>
<polygon points="136.41,71.09 153.08,55.1 163.97,39.1 132.65,60.39" fill="rgb(116,159,198)" stroke="rgb(116,159,198)" stroke-width="0.35"/>
<polygon points="59.95,313.82 42.28,271.89 42.61,284.09 69.05,337.15" fill="rgb(51,66,83)" stroke="rgb(51,66,83)" stroke-width="0.35"/>
<polygon points="382.53,356.6 391.81,340.02 351.03,370.06 329.44,390.44" fill="rgb(51,66,83)" stroke="rgb(51,66,83)" stroke-width="0.35"/>
<polygon points="413.34,201 402.78,270.96 412.03,273.13 421.2,208.39" fill="rgb(64,84,105)" stroke="rgb(64,84,105)" stroke-width="0.35"/>
<polygon points="401.53,316.86 419.35,275.24 412.03,273.13 387.61,330.32" fill="rgb(54,69,87)" stroke="rgb(54,69,87)" stroke-width="0.35"/>
<polygon points="340.21,61.84 332.94,62.17 352.44,107.98 363.91,109.58" fill="rgb(106,144,179)" stroke="rgb(106,144,179)" stroke-width="0.35"/>
<polygon points="77.47,353.89 130.56,388.67 110.02,367.92 69.05,337.15" fill="rgb(51,66,83)" stroke="rgb(51,66,83)" stroke-width="0.35"/>
<polygon points="398.82,186.25 406.86,193.39 398.13,131.49 392.16,129.16" fill="rgb(73,97,122)" stroke="rgb(73,97,122)" stroke-width="0.35"/>
<polygon points="49.95,197.78 41.3,205.02 50.34,269.92 60.32,267.92" fill="rgb(56,73,91)" stroke="rgb(56,73,91)" stroke-width="0.35"/>
<polygon points="124.5,59.93 101.81,107.25 113.95,105.86 132.65,60.39" fill="rgb(90,122,152)" stroke="rgb(90,122,152)" stroke-width="0.35"/>
<polygon points="401.53,316.86 387.61,330.32 351.03,370.06 391.81,340.02" fill="rgb(51,66,83)" stroke="rgb(51,66,83)" stroke-width="0.35"/>
<polygon points="59.95,313.82 74.29,327.54 50.34,269.92 42.28,271.89" fill="rgb(51,66,83)" stroke="rgb(51,66,83)" stroke-width="0.35"/>
<polygon points="66.03,183.3 72.5,126.32 65.78,128.54 57.24,190.29" fill="rgb(62,81,101)" stroke="rgb(62,81,101)" stroke-width="0.35"/>
<polygon points="59.95,313.82 69.05,337.15 110.02,367.92 74.29,327.54" fill="rgb(51,66,83)" stroke="rgb(51,66,83)" stroke-width="0.35"/>
<polygon points="267.7,61.68 276.92,50.04 256.6,32.46 253.28,47.91" fill="rgb(139,192,238)" stroke="rgb(139,192,238)" stroke-width="0.35"/>
<polygon points="230,418.8 329.44,390.44 351.03,370.06 322.7,374.89" fill="rgb(51,66,83)" stroke="rgb(51,66,83)" stroke-width="0.35"/>
<polygon points="199.75,61.07 213.76,47.56 208.66,32.04 189.92,49.27" fill="rgb(135,186,231)" stroke="rgb(135,186,231)" stroke-width="0.35"/>
<polygon points="413.34,201 406.86,193.39 398.13,258.59 402.78,270.96" fill="rgb(58,76,95)" stroke="rgb(58,76,95)" stroke-width="0.35"/>
<polygon points="230,418.8 138.96,373.26 110.02,367.92 130.56,388.67" fill="rgb(51,66,83)" stroke="rgb(51,66,83)" stroke-width="0.35"/>
<polygon points="398.82,186.25 392.16,129.16 378.96,119.25 386.31,180.28" fill="rgb(97,131,164)" stroke="rgb(97,131,164)" stroke-width="0.35"/>
<polygon points="372.19,332.75 387.61,330.32 412.03,273.13 402.78,270.96" fill="rgb(55,71,89)" stroke="rgb(55,71,89)" stroke-width="0.35"/>
<polygon points="329.91,72.81 340.28,107.12 352.44,107.98 332.94,62.17" fill="rgb(113,154,192)" stroke="rgb(113,154,192)" stroke-width="0.35"/>
<polygon points="49.95,197.78 60.32,267.92 65.78,255.64 57.24,190.29" fill="rgb(53,68,85)" stroke="rgb(53,68,85)" stroke-width="0.35"/>
<polygon points="66.03,183.3 79.17,177.55 86.25,116.65 72.5,126.32" fill="rgb(83,111,138)" stroke="rgb(83,111,138)" stroke-width="0.35"/>
<polygon points="372.19,332.75 322.7,374.89 351.03,370.06 387.61,330.32" fill="rgb(51,66,83)" stroke="rgb(51,66,83)" stroke-width="0.35"/>
<polygon points="90.35,330.25 60.32,267.92 50.34,269.92 74.29,327.54" fill="rgb(52,67,84)" stroke="rgb(52,67,84)" stroke-width="0.35"/>
<polygon points="136.41,71.09 132.65,60.39 113.95,105.86 126.69,105.22" fill="rgb(98,133,165)" stroke="rgb(98,133,165)" stroke-width="0.35"/>
<polygon points="291.45,47.96 304.66,92.7 323.21,99.66 313.1,56.52" fill="rgb(140,193,240)" stroke="rgb(140,193,240)" stroke-width="0.35"/>
<polygon points="372.1,174.67 386.31,180.28 378.96,119.25 363.91,109.58" fill="rgb(104,142,176)" stroke="rgb(104,142,176)" stroke-width="0.35"/>
<polygon points="329.91,72.81 313.1,56.52 323.21,99.66 340.28,107.12" fill="rgb(135,185,231)" stroke="rgb(135,185,231)" stroke-width="0.35"/>
<polygon points="90.35,330.25 74.29,327.54 110.02,367.92 138.96,373.26" fill="rgb(51,66,83)" stroke="rgb(51,66,83)" stroke-width="0.35"/>
<polygon points="174.7,46.92 153.08,55.1 144.05,98.06 162.81,91.44" fill="rgb(133,182,226)" stroke="rgb(133,182,226)" stroke-width="0.35"/>
<polygon points="398.82,186.25 392.16,246.8 398.13,258.59 406.86,193.39" fill="rgb(63,83,103)" stroke="rgb(63,83,103)" stroke-width="0.35"/>
<polygon points="136.41,71.09 126.69,105.22 144.05,98.06 153.08,55.1" fill="rgb(125,171,212)" stroke="rgb(125,171,212)" stroke-width="0.35"/>
<polygon points="291.45,47.96 276.92,50.04 288.11,93.37 304.66,92.7" fill="rgb(132,181,225)" stroke="rgb(132,181,225)" stroke-width="0.35"/>
<polygon points="93.97,172.2 101.81,107.25 86.25,116.65 79.17,177.55" fill="rgb(90,121,151)" stroke="rgb(90,121,151)" stroke-width="0.35"/>
<polygon points="372.19,332.75 402.78,270.96 398.13,258.59 373.28,315.34" fill="rgb(52,67,84)" stroke="rgb(52,67,84)" stroke-width="0.35"/>
<polygon points="174.7,46.92 162.81,91.44 179.79,92.41 189.92,49.27" fill="rgb(120,164,204)" stroke="rgb(120,164,204)" stroke-width="0.35"/>
<polygon points="66.03,183.3 57.24,190.29 65.78,255.64 72.5,243.96" fill="rgb(55,72,90)" stroke="rgb(55,72,90)" stroke-width="0.35"/>
<polygon points="230,418.8 322.7,374.89 333.65,351.88 301.85,361.58" fill="rgb(51,66,83)" stroke="rgb(51,66,83)" stroke-width="0.35"/>
<polygon points="90.35,330.25 90.21,312.82 65.78,255.64 60.32,267.92" fill="rgb(51,66,83)" stroke="rgb(51,66,83)" stroke-width="0.35"/>
<polygon points="372.1,174.67 363.91,109.58 352.44,107.98 358.95,168.65" fill="rgb(95,129,161)" stroke="rgb(95,129,161)" stroke-width="0.35"/>
<polygon points="230,418.8 161.22,360.33 129.33,350.07 138.96,373.26" fill="rgb(51,66,83)" stroke="rgb(51,66,83)" stroke-width="0.35"/>
<polygon points="372.19,332.75 373.28,315.34 333.65,351.88 322.7,374.89" fill="rgb(51,66,83)" stroke="rgb(51,66,83)" stroke-width="0.35"/>
<polygon points="233.33,42.72 234.04,86.33 253.27,90.23 253.28,47.91" fill="rgb(140,192,239)" stroke="rgb(140,192,239)" stroke-width="0.35"/>
<polygon points="233.33,42.72 213.76,47.56 214.93,89.89 234.04,86.33" fill="rgb(143,196,244)" stroke="rgb(143,196,244)" stroke-width="0.35"/>
<polygon points="398.82,186.25 386.31,180.28 378.96,246.35 392.16,246.8" fill="rgb(81,109,135)" stroke="rgb(81,109,135)" stroke-width="0.35"/>
<polygon points="93.97,172.2 107.75,166.42 113.95,105.86 101.81,107.25" fill="rgb(81,108,135)" stroke="rgb(81,108,135)" stroke-width="0.35"/>
<polygon points="90.35,330.25 138.96,373.26 129.33,350.07 90.21,312.82" fill="rgb(51,66,83)" stroke="rgb(51,66,83)" stroke-width="0.35"/>
<polygon points="376.9,291.09 373.28,315.34 398.13,258.59 392.16,246.8" fill="rgb(54,70,88)" stroke="rgb(54,70,88)" stroke-width="0.35"/>
<polygon points="267.7,61.68 271.62,94.83 288.11,93.37 276.92,50.04" fill="rgb(136,187,232)" stroke="rgb(136,187,232)" stroke-width="0.35"/>
<polygon points="199.75,61.07 189.92,49.27 179.79,92.41 196.61,94.16" fill="rgb(126,173,215)" stroke="rgb(126,173,215)" stroke-width="0.35"/>
<polygon points="66.03,183.3 72.5,243.96 86.25,243.75 79.17,177.55" fill="rgb(70,93,116)" stroke="rgb(70,93,116)" stroke-width="0.35"/>
<polygon points="267.7,61.68 253.28,47.91 253.27,90.23 271.62,94.83" fill="rgb(141,194,241)" stroke="rgb(141,194,241)" stroke-width="0.35"/>
<polygon points="199.75,61.07 196.61,94.16 214.93,89.89 213.76,47.56" fill="rgb(141,193,240)" stroke="rgb(141,193,240)" stroke-width="0.35"/>
<polygon points="87.32,288.52 72.5,243.96 65.78,255.64 90.21,312.82" fill="rgb(52,67,83)" stroke="rgb(52,67,83)" stroke-width="0.35"/>
<polygon points="344.81,163.31 358.95,168.65 352.44,107.98 340.28,107.12" fill="rgb(101,137,171)" stroke="rgb(101,137,171)" stroke-width="0.35"/>
<polygon points="372.1,174.67 363.91,246.14 378.96,246.35 386.31,180.28" fill="rgb(85,115,143)" stroke="rgb(85,115,143)" stroke-width="0.35"/>
<polygon points="376.9,291.09 360.27,307.03 333.65,351.88 373.28,315.34" fill="rgb(52,67,83)" stroke="rgb(52,67,83)" stroke-width="0.35"/>
<polygon points="376.9,291.09 392.16,246.8 378.96,246.35 360.27,307.03" fill="rgb(65,86,108)" stroke="rgb(65,86,108)" stroke-width="0.35"/>
<polygon points="122.45,161.33 126.69,105.22 113.95,105.86 107.75,166.42" fill="rgb(87,117,146)" stroke="rgb(87,117,146)" stroke-width="0.35"/>
<polygon points="230,418.8 301.85,361.58 300.49,337.79 270.06,352.53" fill="rgb(51,66,83)" stroke="rgb(51,66,83)" stroke-width="0.35"/>
<polygon points="230,418.8 193.95,351.85 163.97,336.58 161.22,360.33" fill="rgb(51,66,83)" stroke="rgb(51,66,83)" stroke-width="0.35"/>
<polygon points="87.32,288.52 90.21,312.82 129.33,350.07 104.1,304.76" fill="rgb(51,66,83)" stroke="rgb(51,66,83)" stroke-width="0.35"/>
<polygon points="93.97,172.2 79.17,177.55 86.25,243.75 101.81,243.82" fill="rgb(74,99,123)" stroke="rgb(74,99,123)" stroke-width="0.35"/>
<polygon points="344.81,163.31 340.28,107.12 323.21,99.66 327.63,159.73" fill="rgb(121,165,205)" stroke="rgb(121,165,205)" stroke-width="0.35"/>
<polygon points="87.32,288.52 104.1,304.76 86.25,243.75 72.5,243.96" fill="rgb(59,77,96)" stroke="rgb(59,77,96)" stroke-width="0.35"/>
<polygon points="340.21,312.33 301.85,361.58 333.65,351.88 360.27,307.03" fill="rgb(51,66,83)" stroke="rgb(51,66,83)" stroke-width="0.35"/>
<polygon points="122.45,161.33 140,158.07 144.05,98.06 126.69,105.22" fill="rgb(110,150,187)" stroke="rgb(110,150,187)" stroke-width="0.35"/>
<polygon points="309.23,156.77 327.63,159.73 323.21,99.66 304.66,92.7" fill="rgb(125,171,213)" stroke="rgb(125,171,213)" stroke-width="0.35"/>
<polygon points="372.1,174.67 358.95,168.65 352.44,235.08 363.91,246.14" fill="rgb(78,105,130)" stroke="rgb(78,105,130)" stroke-width="0.35"/>
<polygon points="124.5,310.42 104.1,304.76 129.33,350.07 161.22,360.33" fill="rgb(51,66,83)" stroke="rgb(51,66,83)" stroke-width="0.35"/>
<polygon points="340.21,312.33 360.27,307.03 378.96,246.35 363.91,246.14" fill="rgb(67,88,110)" stroke="rgb(67,88,110)" stroke-width="0.35"/>
<polygon points="230,418.8 270.06,352.53 256.6,329.94 232.17,349.11" fill="rgb(51,66,83)" stroke="rgb(51,66,83)" stroke-width="0.35"/>
<polygon points="230,418.8 232.17,349.11 208.66,329.51 193.95,351.85" fill="rgb(51,66,83)" stroke="rgb(51,66,83)" stroke-width="0.35"/>
<polygon points="158.7,155.43 162.81,91.44 144.05,98.06 140,158.07" fill="rgb(116,159,198)" stroke="rgb(116,159,198)" stroke-width="0.35"/>
<polygon points="93.97,172.2 101.81,243.82 113.95,232.97 107.75,166.42" fill="rgb(67,89,111)" stroke="rgb(67,89,111)" stroke-width="0.35"/>
<polygon points="124.5,310.42 101.81,243.82 86.25,243.75 104.1,304.76" fill="rgb(60,79,99)" stroke="rgb(60,79,99)" stroke-width="0.35"/>
<polygon points="309.23,156.77 304.66,92.7 288.11,93.37 291.41,153.25" fill="rgb(120,164,204)" stroke="rgb(120,164,204)" stroke-width="0.35"/>
<polygon points="158.7,155.43 176.88,152.23 179.79,92.41 162.81,91.44" fill="rgb(109,148,184)" stroke="rgb(109,148,184)" stroke-width="0.35"/>
<polygon points="340.21,312.33 332.94,295.42 300.49,337.79 301.85,361.58" fill="rgb(51,66,83)" stroke="rgb(51,66,83)" stroke-width="0.35"/>
<polygon points="344.81,163.31 340.28,224.76 352.44,235.08 358.95,168.65" fill="rgb(84,113,141)" stroke="rgb(84,113,141)" stroke-width="0.35"/>
<polygon points="124.5,310.42 161.22,360.33 163.97,336.58 132.65,293.64" fill="rgb(51,66,83)" stroke="rgb(51,66,83)" stroke-width="0.35"/>
<polygon points="340.21,312.33 363.91,246.14 352.44,235.08 332.94,295.42" fill="rgb(60,78,98)" stroke="rgb(60,78,98)" stroke-width="0.35"/>
<polygon points="273.32,150.51 291.41,153.25 288.11,93.37 271.62,94.83" fill="rgb(123,168,209)" stroke="rgb(123,168,209)" stroke-width="0.35"/>
<polygon points="122.45,161.33 107.75,166.42 113.95,232.97 126.69,222.86" fill="rgb(73,97,121)" stroke="rgb(73,97,121)" stroke-width="0.35"/>
<polygon points="195.24,149.82 196.61,94.16 179.79,92.41 176.88,152.23" fill="rgb(113,155,193)" stroke="rgb(113,155,193)" stroke-width="0.35"/>
<polygon points="234.29,150.01 254.09,149.88 253.27,90.23 234.04,86.33" fill="rgb(127,174,216)" stroke="rgb(127,174,216)" stroke-width="0.35"/>
<polygon points="234.29,150.01 234.04,86.33 214.93,89.89 214.53,149.53" fill="rgb(129,176,219)" stroke="rgb(129,176,219)" stroke-width="0.35"/>
<polygon points="124.5,310.42 132.65,293.64 113.95,232.97 101.81,243.82" fill="rgb(55,71,89)" stroke="rgb(55,71,89)" stroke-width="0.35"/>
<polygon points="273.32,150.51 271.62,94.83 253.27,90.23 254.09,149.88" fill="rgb(127,174,217)" stroke="rgb(127,174,217)" stroke-width="0.35"/>
<polygon points="195.24,149.82 214.53,149.53 214.93,89.89 196.61,94.16" fill="rgb(126,173,215)" stroke="rgb(126,173,215)" stroke-width="0.35"/>
<polygon points="344.81,163.31 327.63,159.73 323.21,226.76 340.28,224.76" fill="rgb(101,136,170)" stroke="rgb(101,136,170)" stroke-width="0.35"/>
<polygon points="329.91,271.13 332.94,295.42 352.44,235.08 340.28,224.76" fill="rgb(66,87,109)" stroke="rgb(66,87,109)" stroke-width="0.35"/>
<polygon points="122.45,161.33 126.69,222.86 144.05,225.17 140,158.07" fill="rgb(92,124,154)" stroke="rgb(92,124,154)" stroke-width="0.35"/>
<polygon points="291.45,298.44 270.06,352.53 300.49,337.79 313.1,289.77" fill="rgb(52,67,84)" stroke="rgb(52,67,84)" stroke-width="0.35"/>
<polygon points="329.91,271.13 313.1,289.77 300.49,337.79 332.94,295.42" fill="rgb(54,71,89)" stroke="rgb(54,71,89)" stroke-width="0.35"/>
<polygon points="174.7,297.41 153.08,288.35 163.97,336.58 193.95,351.85" fill="rgb(52,67,84)" stroke="rgb(52,67,84)" stroke-width="0.35"/>
<polygon points="309.23,156.77 304.66,229.27 323.21,226.76 327.63,159.73" fill="rgb(102,139,173)" stroke="rgb(102,139,173)" stroke-width="0.35"/>
<polygon points="136.41,269.41 126.69,222.86 113.95,232.97 132.65,293.64" fill="rgb(59,78,97)" stroke="rgb(59,78,97)" stroke-width="0.35"/>
<polygon points="136.41,269.41 132.65,293.64 163.97,336.58 153.08,288.35" fill="rgb(53,68,85)" stroke="rgb(53,68,85)" stroke-width="0.35"/>
<polygon points="158.7,155.43 140,158.07 144.05,225.17 162.81,228.01" fill="rgb(95,129,160)" stroke="rgb(95,129,160)" stroke-width="0.35"/>
<polygon points="329.91,271.13 340.28,224.76 323.21,226.76 313.1,289.77" fill="rgb(78,104,129)" stroke="rgb(78,104,129)" stroke-width="0.35"/>
<polygon points="291.45,298.44 276.92,283.29 256.6,329.94 270.06,352.53" fill="rgb(52,67,84)" stroke="rgb(52,67,84)" stroke-width="0.35"/>
<polygon points="174.7,297.41 193.95,351.85 208.66,329.51 189.92,282.52" fill="rgb(52,67,83)" stroke="rgb(52,67,83)" stroke-width="0.35"/>
<polygon points="309.23,156.77 291.41,153.25 288.11,220.48 304.66,229.27" fill="rgb(98,133,165)" stroke="rgb(98,133,165)" stroke-width="0.35"/>
<polygon points="136.41,269.41 153.08,288.35 144.05,225.17 126.69,222.86" fill="rgb(72,96,119)" stroke="rgb(72,96,119)" stroke-width="0.35"/>
<polygon points="158.7,155.43 162.81,228.01 179.79,219.51 176.88,152.23" fill="rgb(89,120,149)" stroke="rgb(89,120,149)" stroke-width="0.35"/>
<polygon points="291.45,298.44 313.1,289.77 323.21,226.76 304.66,229.27" fill="rgb(76,101,126)" stroke="rgb(76,101,126)" stroke-width="0.35"/>
<polygon points="233.33,293.2 232.17,349.11 256.6,329.94 253.28,281.16" fill="rgb(52,68,85)" stroke="rgb(52,68,85)" stroke-width="0.35"/>
<polygon points="233.33,293.2 213.76,280.81 208.66,329.51 232.17,349.11" fill="rgb(52,68,85)" stroke="rgb(52,68,85)" stroke-width="0.35"/>
<polygon points="174.7,297.41 162.81,228.01 144.05,225.17 153.08,288.35" fill="rgb(72,96,120)" stroke="rgb(72,96,120)" stroke-width="0.35"/>
<polygon points="273.32,150.51 271.62,212.47 288.11,220.48 291.41,153.25" fill="rgb(102,139,173)" stroke="rgb(102,139,173)" stroke-width="0.35"/>
<polygon points="195.24,149.82 176.88,152.23 179.79,219.51 196.61,211.8" fill="rgb(95,128,159)" stroke="rgb(95,128,159)" stroke-width="0.35"/>
<polygon points="291.45,298.44 304.66,229.27 288.11,220.48 276.92,283.29" fill="rgb(72,95,119)" stroke="rgb(72,95,119)" stroke-width="0.35"/>
<polygon points="273.32,150.51 254.09,149.88 253.27,217.33 271.62,212.47" fill="rgb(106,144,180)" stroke="rgb(106,144,180)" stroke-width="0.35"/>
<polygon points="234.29,150.01 234.04,222.9 253.27,217.33 254.09,149.88" fill="rgb(104,141,175)" stroke="rgb(104,141,175)" stroke-width="0.35"/>
<polygon points="195.24,149.82 196.61,211.8 214.93,216.99 214.53,149.53" fill="rgb(106,143,179)" stroke="rgb(106,143,179)" stroke-width="0.35"/>
<polygon points="234.29,150.01 214.53,149.53 214.93,216.99 234.04,222.9" fill="rgb(105,143,178)" stroke="rgb(105,143,178)" stroke-width="0.35"/>
<polygon points="174.7,297.41 189.92,282.52 179.79,219.51 162.81,228.01" fill="rgb(66,87,109)" stroke="rgb(66,87,109)" stroke-width="0.35"/>
<polygon points="267.7,259.99 253.28,281.16 256.6,329.94 276.92,283.29" fill="rgb(57,75,93)" stroke="rgb(57,75,93)" stroke-width="0.35"/>
<polygon points="199.75,259.39 189.92,282.52 208.66,329.51 213.76,280.81" fill="rgb(56,73,92)" stroke="rgb(56,73,92)" stroke-width="0.35"/>
<polygon points="267.7,259.99 276.92,283.29 288.11,220.48 271.62,212.47" fill="rgb(78,104,130)" stroke="rgb(78,104,130)" stroke-width="0.35"/>
<polygon points="199.75,259.39 196.61,211.8 179.79,219.51 189.92,282.52" fill="rgb(73,97,121)" stroke="rgb(73,97,121)" stroke-width="0.35"/>
<polygon points="233.33,293.2 253.28,281.16 253.27,217.33 234.04,222.9" fill="rgb(76,101,126)" stroke="rgb(76,101,126)" stroke-width="0.35"/>
<polygon points="233.33,293.2 234.04,222.9 214.93,216.99 213.76,280.81" fill="rgb(77,103,129)" stroke="rgb(77,103,129)" stroke-width="0.35"/>
<polygon points="267.7,259.99 271.62,212.47 253.27,217.33 253.28,281.16" fill="rgb(81,108,135)" stroke="rgb(81,108,135)" stroke-width="0.35"/>
<polygon points="199.75,259.39 213.76,280.81 214.93,216.99 196.61,211.8" fill="rgb(81,108,135)" stroke="rgb(81,108,135)" stroke-width="0.35"/>
<text x="16" y="430" fill="#8b98a8" font-family="ui-monospace,monospace" font-size="13">cylinder_subdiv2</text>
<text x="16" y="447" fill="#5d6874" font-family="ui-monospace,monospace" font-size="11">386 verts · 384 faces · 191 drawn</text>
</svg>
