<svg xmlns="http://www.w3.org/2000/svg" viewBox="0 0 460 460" width="460" height="460">
<rect width="100%" height="100%" fill="#14161a"/>
<polygon points="48.87,147.8 42.65,165.08 33.48,195.83 39.65,179.36" fill="rgb(54,70,88)" stroke="rgb(54,70,88)" stroke-width="0.35"/>
<polygon points="248.03,426.63 270.96,423.79 239.57,424.54 217,427.66" fill="rgb(51,66,83)" stroke="rgb(51,66,83)" stroke-width="0.35"/>
<polygon points="69.23,346.98 56.89,330.71 66.59,345.35 79.54,362.41" fill="rgb(51,66,83)" stroke="rgb(51,66,83)" stroke-width="0.35"/>
<polygon points="293.63,414.47 270.96,423.79 299.72,416.33 322.08,407.37" fill="rgb(51,66,83)" stroke="rgb(51,66,83)" stroke-width="0.35"/>
<polygon points="44.23,305.89 42.65,293.31 33.48,261.9 35.4,276.35" fill="rgb(51,66,83)" stroke="rgb(51,66,83)" stroke-width="0.35"/>
<polygon points="415.77,154.11 403.11,129.29 393.41,114.65 405.37,139.06" fill="rgb(76,102,127)" stroke="rgb(76,102,127)" stroke-width="0.35"/>
<polygon points="185.45,422.22 155.47,410.14 137.04,406.88 165.53,418.6" fill="rgb(51,66,83)" stroke="rgb(51,66,83)" stroke-width="0.35"/>
<polygon points="346.49,393.09 364.8,378.43 341.2,392.24 322.08,407.37" fill="rgb(51,66,83)" stroke="rgb(51,66,83)" stroke-width="0.35"/>
<polygon points="48.87,147.8 61.87,131.06 76.08,103.24 63.1,120.63" fill="rgb(65,85,106)" stroke="rgb(65,85,106)" stroke-width="0.35"/>
<polygon points="378.54,360.15 364.8,378.43 383.92,356.76 396.9,339.37" fill="rgb(51,66,83)" stroke="rgb(51,66,83)" stroke-width="0.35"/>
<polygon points="36.29,213.4 39.65,179.36 33.48,195.83 30,228.85" fill="rgb(52,67,84)" stroke="rgb(52,67,84)" stroke-width="0.35"/>
<polygon points="362.61,79.69 376.17,98.18 393.41,114.65 380.46,97.59" fill="rgb(93,125,156)" stroke="rgb(93,125,156)" stroke-width="0.35"/>
<polygon points="97.39,380.31 111.81,390.13 90.83,369.87 79.54,362.41" fill="rgb(51,66,83)" stroke="rgb(51,66,83)" stroke-width="0.35"/>
<polygon points="113.51,66.91 95.2,81.57 76.08,103.24 94.47,88.71" fill="rgb(81,108,135)" stroke="rgb(81,108,135)" stroke-width="0.35"/>
<polygon points="113.51,66.91 135.88,57.94 160.28,43.67 137.92,52.63" fill="rgb(101,137,170)" stroke="rgb(101,137,170)" stroke-width="0.35"/>
<polygon points="411.13,312.2 417.35,294.92 403.78,321.16 396.9,339.37" fill="rgb(51,66,83)" stroke="rgb(51,66,83)" stroke-width="0.35"/>
<polygon points="44.23,305.89 56.89,330.71 56.22,321.41 42.65,293.31" fill="rgb(51,66,83)" stroke="rgb(51,66,83)" stroke-width="0.35"/>
<polygon points="211.97,33.37 189.04,36.21 160.28,43.67 183.56,40.69" fill="rgb(114,155,193)" stroke="rgb(114,155,193)" stroke-width="0.35"/>
<polygon points="428.06,215.8 424.6,248.44 426.52,264.17 430,231.15" fill="rgb(52,68,85)" stroke="rgb(52,68,85)" stroke-width="0.35"/>
<polygon points="185.45,422.22 217,427.66 239.57,424.54 207.25,418.7" fill="rgb(51,66,83)" stroke="rgb(51,66,83)" stroke-width="0.35"/>
<polygon points="311.57,52.7 339.19,64.07 322.96,53.12 294.47,41.4" fill="rgb(116,158,196)" stroke="rgb(116,158,196)" stroke-width="0.35"/>
<polygon points="415.77,154.11 405.37,139.06 413.71,168.56 424.6,183.65" fill="rgb(71,95,118)" stroke="rgb(71,95,118)" stroke-width="0.35"/>
<polygon points="69.23,346.98 79.54,362.41 90.83,369.87 72.75,346.75" fill="rgb(51,66,83)" stroke="rgb(51,66,83)" stroke-width="0.35"/>
<polygon points="36.29,213.4 30,228.85 33.48,261.9 39.65,247.99" fill="rgb(51,66,83)" stroke="rgb(51,66,83)" stroke-width="0.35"/>
<polygon points="127.76,392.38 111.81,390.13 137.04,406.88 155.47,410.14" fill="rgb(51,66,83)" stroke="rgb(51,66,83)" stroke-width="0.35"/>
<polygon points="48.87,147.8 39.65,179.36 53,163.34 61.87,131.06" fill="rgb(61,79,99)" stroke="rgb(61,79,99)" stroke-width="0.35"/>
<polygon points="69.23,346.98 72.75,346.75 56.22,321.41 56.89,330.71" fill="rgb(51,66,83)" stroke="rgb(51,66,83)" stroke-width="0.35"/>
<polygon points="211.97,33.37 233.21,37.13 263.72,36.25 243,32.34" fill="rgb(123,168,209)" stroke="rgb(123,168,209)" stroke-width="0.35"/>
<polygon points="293.63,414.47 262.49,414.74 239.57,424.54 270.96,423.79" fill="rgb(51,66,83)" stroke="rgb(51,66,83)" stroke-width="0.35"/>
<polygon points="362.61,79.69 339.19,64.07 352.87,83.38 376.17,98.18" fill="rgb(108,146,182)" stroke="rgb(108,146,182)" stroke-width="0.35"/>
<polygon points="293.63,414.47 322.08,407.37 341.2,392.24 314.05,398.76" fill="rgb(51,66,83)" stroke="rgb(51,66,83)" stroke-width="0.35"/>
<polygon points="387.48,123.52 405.37,139.06 393.41,114.65 376.17,98.18" fill="rgb(91,123,153)" stroke="rgb(91,123,153)" stroke-width="0.35"/>
<polygon points="378.54,360.15 356.95,372.55 341.2,392.24 364.8,378.43" fill="rgb(51,66,83)" stroke="rgb(51,66,83)" stroke-width="0.35"/>
<polygon points="415.77,279.25 417.35,294.92 426.52,264.17 424.6,248.44" fill="rgb(51,66,83)" stroke="rgb(51,66,83)" stroke-width="0.35"/>
<polygon points="378.54,360.15 396.9,339.37 403.78,321.16 387.25,340.34" fill="rgb(51,66,83)" stroke="rgb(51,66,83)" stroke-width="0.35"/>
<polygon points="80.84,116.56 94.47,88.71 76.08,103.24 61.87,131.06" fill="rgb(76,102,127)" stroke="rgb(76,102,127)" stroke-width="0.35"/>
<polygon points="428.06,215.8 424.6,183.65 413.71,168.56 416.97,201.1" fill="rgb(66,87,108)" stroke="rgb(66,87,108)" stroke-width="0.35"/>
<polygon points="48.87,281.92 39.65,247.99 33.48,261.9 42.65,293.31" fill="rgb(51,66,83)" stroke="rgb(51,66,83)" stroke-width="0.35"/>
<polygon points="311.57,52.7 294.47,41.4 263.72,36.25 281.09,47.53" fill="rgb(128,176,218)" stroke="rgb(128,176,218)" stroke-width="0.35"/>
<polygon points="185.45,422.22 207.25,418.7 175.74,406.37 155.47,410.14" fill="rgb(51,66,83)" stroke="rgb(51,66,83)" stroke-width="0.35"/>
<polygon points="113.51,66.91 94.47,88.71 117.57,79.14 135.88,57.94" fill="rgb(98,132,165)" stroke="rgb(98,132,165)" stroke-width="0.35"/>
<polygon points="160.02,54.21 183.56,40.69 160.28,43.67 135.88,57.94" fill="rgb(116,158,196)" stroke="rgb(116,158,196)" stroke-width="0.35"/>
<polygon points="127.76,392.38 103.05,369.93 90.83,369.87 111.81,390.13" fill="rgb(51,66,83)" stroke="rgb(51,66,83)" stroke-width="0.35"/>
<polygon points="36.29,213.4 49.9,198.4 53,163.34 39.65,179.36" fill="rgb(57,74,93)" stroke="rgb(57,74,93)" stroke-width="0.35"/>
<polygon points="211.97,33.37 183.56,40.69 205.46,43.51 233.21,37.13" fill="rgb(127,174,217)" stroke="rgb(127,174,217)" stroke-width="0.35"/>
<polygon points="415.77,279.25 403.11,305.88 403.78,321.16 417.35,294.92" fill="rgb(51,66,83)" stroke="rgb(51,66,83)" stroke-width="0.35"/>
<polygon points="48.87,281.92 42.65,293.31 56.22,321.41 63.1,314" fill="rgb(51,66,83)" stroke="rgb(51,66,83)" stroke-width="0.35"/>
<polygon points="230,408.54 207.25,418.7 239.57,424.54 262.49,414.74" fill="rgb(51,66,83)" stroke="rgb(51,66,83)" stroke-width="0.35"/>
<polygon points="311.57,52.7 324.9,72.19 352.87,83.38 339.19,64.07" fill="rgb(122,166,207)" stroke="rgb(122,166,207)" stroke-width="0.35"/>
<polygon points="81.46,343.55 72.75,346.75 90.83,369.87 103.05,369.93" fill="rgb(51,66,83)" stroke="rgb(51,66,83)" stroke-width="0.35"/>
<polygon points="387.48,123.52 395.15,153.87 413.71,168.56 405.37,139.06" fill="rgb(86,116,145)" stroke="rgb(86,116,145)" stroke-width="0.35"/>
<polygon points="428.06,215.8 416.97,201.1 413.71,234.63 424.6,248.44" fill="rgb(59,78,97)" stroke="rgb(59,78,97)" stroke-width="0.35"/>
<polygon points="81.46,343.55 63.1,314 56.22,321.41 72.75,346.75" fill="rgb(51,66,83)" stroke="rgb(51,66,83)" stroke-width="0.35"/>
<polygon points="378.54,360.15 387.25,340.34 369.17,349.91 356.95,372.55" fill="rgb(51,66,83)" stroke="rgb(51,66,83)" stroke-width="0.35"/>
<polygon points="387.48,123.52 376.17,98.18 352.87,83.38 363.41,109.43" fill="rgb(106,144,180)" stroke="rgb(106,144,180)" stroke-width="0.35"/>
<polygon points="250.4,47.73 281.09,47.53 263.72,36.25 233.21,37.13" fill="rgb(135,185,231)" stroke="rgb(135,185,231)" stroke-width="0.35"/>
<polygon points="80.84,116.56 61.87,131.06 53,163.34 72.65,148.96" fill="rgb(70,93,117)" stroke="rgb(70,93,117)" stroke-width="0.35"/>
<polygon points="293.63,414.47 314.05,398.76 284.26,398.58 262.49,414.74" fill="rgb(51,66,83)" stroke="rgb(51,66,83)" stroke-width="0.35"/>
<polygon points="390.77,323.92 387.25,340.34 403.78,321.16 403.11,305.88" fill="rgb(51,66,83)" stroke="rgb(51,66,83)" stroke-width="0.35"/>
<polygon points="127.76,392.38 155.47,410.14 175.74,406.37 145.95,388.19" fill="rgb(51,66,83)" stroke="rgb(51,66,83)" stroke-width="0.35"/>
<polygon points="332.24,377.72 314.05,398.76 341.2,392.24 356.95,372.55" fill="rgb(51,66,83)" stroke="rgb(51,66,83)" stroke-width="0.35"/>
<polygon points="36.29,213.4 39.65,247.99 53,234.52 49.9,198.4" fill="rgb(53,69,87)" stroke="rgb(53,69,87)" stroke-width="0.35"/>
<polygon points="80.84,116.56 104.96,106.03 117.57,79.14 94.47,88.71" fill="rgb(91,123,153)" stroke="rgb(91,123,153)" stroke-width="0.35"/>
<polygon points="160.02,54.21 135.88,57.94 117.57,79.14 143.61,73.86" fill="rgb(112,153,191)" stroke="rgb(112,153,191)" stroke-width="0.35"/>
<polygon points="160.02,54.21 183.62,55.26 205.46,43.51 183.56,40.69" fill="rgb(128,175,218)" stroke="rgb(128,175,218)" stroke-width="0.35"/>
<polygon points="415.77,279.25 424.6,248.44 413.71,234.63 405.37,267.29" fill="rgb(55,71,89)" stroke="rgb(55,71,89)" stroke-width="0.35"/>
<polygon points="398.07,187.45 416.97,201.1 413.71,168.56 395.15,153.87" fill="rgb(79,106,132)" stroke="rgb(79,106,132)" stroke-width="0.35"/>
<polygon points="311.57,52.7 281.09,47.53 293.63,66.51 324.9,72.19" fill="rgb(135,185,230)" stroke="rgb(135,185,230)" stroke-width="0.35"/>
<polygon points="230,408.54 197.51,396.24 175.74,406.37 207.25,418.7" fill="rgb(51,66,83)" stroke="rgb(51,66,83)" stroke-width="0.35"/>
<polygon points="250.4,47.73 233.21,37.13 205.46,43.51 222.12,52.49" fill="rgb(138,189,235)" stroke="rgb(138,189,235)" stroke-width="0.35"/>
<polygon points="48.87,281.92 61.87,270.48 53,234.52 39.65,247.99" fill="rgb(52,67,84)" stroke="rgb(52,67,84)" stroke-width="0.35"/>
<polygon points="127.76,392.38 145.95,388.19 118.8,364.81 103.05,369.93" fill="rgb(51,66,83)" stroke="rgb(51,66,83)" stroke-width="0.35"/>
<polygon points="390.77,323.92 380.46,324.68 369.17,349.91 387.25,340.34" fill="rgb(51,66,83)" stroke="rgb(51,66,83)" stroke-width="0.35"/>
<polygon points="415.77,279.25 405.37,267.29 393.41,297.23 403.11,305.88" fill="rgb(52,67,84)" stroke="rgb(52,67,84)" stroke-width="0.35"/>
<polygon points="69.9,184.4 72.65,148.96 53,163.34 49.9,198.4" fill="rgb(65,85,106)" stroke="rgb(65,85,106)" stroke-width="0.35"/>
<polygon points="334.44,98.37 363.41,109.43 352.87,83.38 324.9,72.19" fill="rgb(120,164,204)" stroke="rgb(120,164,204)" stroke-width="0.35"/>
<polygon points="387.48,123.52 363.41,109.43 370.2,140.59 395.15,153.87" fill="rgb(101,136,170)" stroke="rgb(101,136,170)" stroke-width="0.35"/>
<polygon points="390.77,323.92 403.11,305.88 393.41,297.23 380.46,324.68" fill="rgb(51,66,83)" stroke="rgb(51,66,83)" stroke-width="0.35"/>
<polygon points="230,408.54 262.49,414.74 284.26,398.58 252.75,392.27" fill="rgb(51,66,83)" stroke="rgb(51,66,83)" stroke-width="0.35"/>
<polygon points="332.24,377.72 356.95,372.55 369.17,349.91 348.19,352.35" fill="rgb(51,66,83)" stroke="rgb(51,66,83)" stroke-width="0.35"/>
<polygon points="48.87,281.92 63.1,314 76.08,305 61.87,270.48" fill="rgb(51,66,83)" stroke="rgb(51,66,83)" stroke-width="0.35"/>
<polygon points="81.46,343.55 103.05,369.93 118.8,364.81 95.2,336.86" fill="rgb(51,66,83)" stroke="rgb(51,66,83)" stroke-width="0.35"/>
<polygon points="332.24,377.72 304.53,376.81 284.26,398.58 314.05,398.76" fill="rgb(51,66,83)" stroke="rgb(51,66,83)" stroke-width="0.35"/>
<polygon points="398.07,187.45 395.15,222.49 413.71,234.63 416.97,201.1" fill="rgb(70,93,116)" stroke="rgb(70,93,116)" stroke-width="0.35"/>
<polygon points="201.65,59.16 222.12,52.49 205.46,43.51 183.62,55.26" fill="rgb(137,188,234)" stroke="rgb(137,188,234)" stroke-width="0.35"/>
<polygon points="81.46,343.55 95.2,336.86 76.08,305 63.1,314" fill="rgb(51,66,83)" stroke="rgb(51,66,83)" stroke-width="0.35"/>
<polygon points="80.84,116.56 72.65,148.96 97.69,137.38 104.96,106.03" fill="rgb(83,111,139)" stroke="rgb(83,111,139)" stroke-width="0.35"/>
<polygon points="250.4,47.73 261.19,65.43 293.63,66.51 281.09,47.53" fill="rgb(141,194,242)" stroke="rgb(141,194,242)" stroke-width="0.35"/>
<polygon points="160.02,54.21 143.61,73.86 170.85,72.25 183.62,55.26" fill="rgb(125,171,213)" stroke="rgb(125,171,213)" stroke-width="0.35"/>
<polygon points="133.08,98.89 143.61,73.86 117.57,79.14 104.96,106.03" fill="rgb(105,143,178)" stroke="rgb(105,143,178)" stroke-width="0.35"/>
<polygon points="166.37,378.22 145.95,388.19 175.74,406.37 197.51,396.24" fill="rgb(51,66,83)" stroke="rgb(51,66,83)" stroke-width="0.35"/>
<polygon points="69.9,184.4 49.9,198.4 53,234.52 72.65,221.41" fill="rgb(59,77,97)" stroke="rgb(59,77,97)" stroke-width="0.35"/>
<polygon points="387.48,257.64 405.37,267.29 413.71,234.63 395.15,222.49" fill="rgb(62,82,102)" stroke="rgb(62,82,102)" stroke-width="0.35"/>
<polygon points="362.61,323.39 348.19,352.35 369.17,349.91 380.46,324.68" fill="rgb(51,66,83)" stroke="rgb(51,66,83)" stroke-width="0.35"/>
<polygon points="334.44,98.37 324.9,72.19 293.63,66.51 301.87,91.91" fill="rgb(132,182,226)" stroke="rgb(132,182,226)" stroke-width="0.35"/>
<polygon points="250.4,47.73 222.12,52.49 229.7,68.03 261.19,65.43" fill="rgb(143,197,245)" stroke="rgb(143,197,245)" stroke-width="0.35"/>
<polygon points="398.07,187.45 395.15,153.87 370.2,140.59 372.67,175.25" fill="rgb(92,124,155)" stroke="rgb(92,124,155)" stroke-width="0.35"/>
<polygon points="230,408.54 252.75,392.27 220.43,380.41 197.51,396.24" fill="rgb(51,66,83)" stroke="rgb(51,66,83)" stroke-width="0.35"/>
<polygon points="201.65,59.16 183.62,55.26 170.85,72.25 199.48,71.3" fill="rgb(135,185,230)" stroke="rgb(135,185,230)" stroke-width="0.35"/>
<polygon points="334.44,98.37 340.18,129.77 370.2,140.59 363.41,109.43" fill="rgb(113,155,193)" stroke="rgb(113,155,193)" stroke-width="0.35"/>
<polygon points="166.37,378.22 137.92,354.92 118.8,364.81 145.95,388.19" fill="rgb(51,66,83)" stroke="rgb(51,66,83)" stroke-width="0.35"/>
<polygon points="387.48,257.64 376.17,291.54 393.41,297.23 405.37,267.29" fill="rgb(56,73,91)" stroke="rgb(56,73,91)" stroke-width="0.35"/>
<polygon points="80.84,258.48 72.65,221.41 53,234.52 61.87,270.48" fill="rgb(55,71,89)" stroke="rgb(55,71,89)" stroke-width="0.35"/>
<polygon points="362.61,323.39 380.46,324.68 393.41,297.23 376.17,291.54" fill="rgb(52,67,84)" stroke="rgb(52,67,84)" stroke-width="0.35"/>
<polygon points="69.9,184.4 95.39,171.97 97.69,137.38 72.65,148.96" fill="rgb(75,100,125)" stroke="rgb(75,100,125)" stroke-width="0.35"/>
<polygon points="201.65,59.16 199.48,71.3 229.7,68.03 222.12,52.49" fill="rgb(140,193,240)" stroke="rgb(140,193,240)" stroke-width="0.35"/>
<polygon points="332.24,377.72 348.19,352.35 322.96,350.16 304.53,376.81" fill="rgb(51,66,83)" stroke="rgb(51,66,83)" stroke-width="0.35"/>
<polygon points="274.55,370.47 252.75,392.27 284.26,398.58 304.53,376.81" fill="rgb(51,66,83)" stroke="rgb(51,66,83)" stroke-width="0.35"/>
<polygon points="133.08,98.89 164.06,94.55 170.85,72.25 143.61,73.86" fill="rgb(119,163,202)" stroke="rgb(119,163,202)" stroke-width="0.35"/>
<polygon points="133.08,98.89 104.96,106.03 97.69,137.38 127.18,128.52" fill="rgb(97,131,163)" stroke="rgb(97,131,163)" stroke-width="0.35"/>
<polygon points="113.51,326.74 95.2,336.86 118.8,364.81 137.92,354.92" fill="rgb(51,66,83)" stroke="rgb(51,66,83)" stroke-width="0.35"/>
<polygon points="80.84,258.48 61.87,270.48 76.08,305 94.47,294.09" fill="rgb(52,67,84)" stroke="rgb(52,67,84)" stroke-width="0.35"/>
<polygon points="267.22,89.27 301.87,91.91 293.63,66.51 261.19,65.43" fill="rgb(140,192,238)" stroke="rgb(140,192,238)" stroke-width="0.35"/>
<polygon points="398.07,187.45 372.67,175.25 370.2,211.78 395.15,222.49" fill="rgb(82,109,136)" stroke="rgb(82,109,136)" stroke-width="0.35"/>
<polygon points="113.51,326.74 94.47,294.09 76.08,305 95.2,336.86" fill="rgb(51,66,83)" stroke="rgb(51,66,83)" stroke-width="0.35"/>
<polygon points="166.37,378.22 197.51,396.24 220.43,380.41 189.04,363.16" fill="rgb(51,66,83)" stroke="rgb(51,66,83)" stroke-width="0.35"/>
<polygon points="69.9,184.4 72.65,221.41 97.69,208.56 95.39,171.97" fill="rgb(67,89,111)" stroke="rgb(67,89,111)" stroke-width="0.35"/>
<polygon points="362.61,323.39 339.19,319.37 322.96,350.16 348.19,352.35" fill="rgb(51,66,83)" stroke="rgb(51,66,83)" stroke-width="0.35"/>
<polygon points="334.44,98.37 301.87,91.91 306.38,122.42 340.18,129.77" fill="rgb(125,171,212)" stroke="rgb(125,171,212)" stroke-width="0.35"/>
<polygon points="197.24,91.87 199.48,71.3 170.85,72.25 164.06,94.55" fill="rgb(131,180,224)" stroke="rgb(131,180,224)" stroke-width="0.35"/>
<polygon points="342.1,164.88 372.67,175.25 370.2,140.59 340.18,129.77" fill="rgb(104,141,176)" stroke="rgb(104,141,176)" stroke-width="0.35"/>
<polygon points="267.22,89.27 261.19,65.43 229.7,68.03 231.99,89.68" fill="rgb(142,195,243)" stroke="rgb(142,195,243)" stroke-width="0.35"/>
<polygon points="387.48,257.64 395.15,222.49 370.2,211.78 363.41,248.85" fill="rgb(71,94,117)" stroke="rgb(71,94,117)" stroke-width="0.35"/>
<polygon points="274.55,370.47 243,359.29 220.43,380.41 252.75,392.27" fill="rgb(51,66,83)" stroke="rgb(51,66,83)" stroke-width="0.35"/>
<polygon points="197.24,91.87 231.99,89.68 229.7,68.03 199.48,71.3" fill="rgb(139,192,238)" stroke="rgb(139,192,238)" stroke-width="0.35"/>
<polygon points="274.55,370.47 304.53,376.81 322.96,350.16 294.47,343.69" fill="rgb(51,66,83)" stroke="rgb(51,66,83)" stroke-width="0.35"/>
<polygon points="362.61,323.39 376.17,291.54 352.87,285.15 339.19,319.37" fill="rgb(53,69,87)" stroke="rgb(53,69,87)" stroke-width="0.35"/>
<polygon points="125.4,161.64 127.18,128.52 97.69,137.38 95.39,171.97" fill="rgb(87,117,146)" stroke="rgb(87,117,146)" stroke-width="0.35"/>
<polygon points="166.37,378.22 189.04,363.16 160.28,340.71 137.92,354.92" fill="rgb(51,66,83)" stroke="rgb(51,66,83)" stroke-width="0.35"/>
<polygon points="387.48,257.64 363.41,248.85 352.87,285.15 376.17,291.54" fill="rgb(61,80,100)" stroke="rgb(61,80,100)" stroke-width="0.35"/>
<polygon points="133.08,98.89 127.18,128.52 160.17,122.24 164.06,94.55" fill="rgb(111,151,188)" stroke="rgb(111,151,188)" stroke-width="0.35"/>
<polygon points="80.84,258.48 104.96,245.45 97.69,208.56 72.65,221.41" fill="rgb(61,79,99)" stroke="rgb(61,79,99)" stroke-width="0.35"/>
<polygon points="267.22,89.27 270.13,118.26 306.38,122.42 301.87,91.91" fill="rgb(132,181,226)" stroke="rgb(132,181,226)" stroke-width="0.35"/>
<polygon points="342.1,164.88 340.18,202.23 370.2,211.78 372.67,175.25" fill="rgb(92,124,155)" stroke="rgb(92,124,155)" stroke-width="0.35"/>
<polygon points="113.51,326.74 137.92,354.92 160.28,340.71 135.88,313.23" fill="rgb(51,66,83)" stroke="rgb(51,66,83)" stroke-width="0.35"/>
<polygon points="80.84,258.48 94.47,294.09 117.57,280.91 104.96,245.45" fill="rgb(55,72,90)" stroke="rgb(55,72,90)" stroke-width="0.35"/>
<polygon points="113.51,326.74 135.88,313.23 117.57,280.91 94.47,294.09" fill="rgb(52,67,84)" stroke="rgb(52,67,84)" stroke-width="0.35"/>
<polygon points="211.97,343.46 189.04,363.16 220.43,380.41 243,359.29" fill="rgb(51,66,83)" stroke="rgb(51,66,83)" stroke-width="0.35"/>
<polygon points="342.1,164.88 340.18,129.77 306.38,122.42 307.7,156.75" fill="rgb(114,155,193)" stroke="rgb(114,155,193)" stroke-width="0.35"/>
<polygon points="311.57,312.53 294.47,343.69 322.96,350.16 339.19,319.37" fill="rgb(51,66,83)" stroke="rgb(51,66,83)" stroke-width="0.35"/>
<polygon points="197.24,91.87 164.06,94.55 160.17,122.24 195.69,118.45" fill="rgb(124,170,211)" stroke="rgb(124,170,211)" stroke-width="0.35"/>
<polygon points="125.4,161.64 95.39,171.97 97.69,208.56 127.18,197.14" fill="rgb(77,103,129)" stroke="rgb(77,103,129)" stroke-width="0.35"/>
<polygon points="274.55,370.47 294.47,343.69 263.72,333.29 243,359.29" fill="rgb(51,66,83)" stroke="rgb(51,66,83)" stroke-width="0.35"/>
<polygon points="267.22,89.27 231.99,89.68 232.79,117.03 270.13,118.26" fill="rgb(136,186,232)" stroke="rgb(136,186,232)" stroke-width="0.35"/>
<polygon points="334.44,240.29 363.41,248.85 370.2,211.78 340.18,202.23" fill="rgb(79,106,132)" stroke="rgb(79,106,132)" stroke-width="0.35"/>
<polygon points="197.24,91.87 195.69,118.45 232.79,117.03 231.99,89.68" fill="rgb(133,183,228)" stroke="rgb(133,183,228)" stroke-width="0.35"/>
<polygon points="125.4,161.64 158.95,153.95 160.17,122.24 127.18,128.52" fill="rgb(101,136,170)" stroke="rgb(101,136,170)" stroke-width="0.35"/>
<polygon points="311.57,312.53 339.19,319.37 352.87,285.15 324.9,277.56" fill="rgb(56,73,91)" stroke="rgb(56,73,91)" stroke-width="0.35"/>
<polygon points="211.97,343.46 183.56,323.17 160.28,340.71 189.04,363.16" fill="rgb(51,66,83)" stroke="rgb(51,66,83)" stroke-width="0.35"/>
<polygon points="334.44,240.29 324.9,277.56 352.87,285.15 363.41,248.85" fill="rgb(67,88,110)" stroke="rgb(67,88,110)" stroke-width="0.35"/>
<polygon points="133.08,233.01 127.18,197.14 97.69,208.56 104.96,245.45" fill="rgb(68,91,113)" stroke="rgb(68,91,113)" stroke-width="0.35"/>
<polygon points="270.81,151.21 307.7,156.75 306.38,122.42 270.13,118.26" fill="rgb(121,166,206)" stroke="rgb(121,166,206)" stroke-width="0.35"/>
<polygon points="342.1,164.88 307.7,156.75 306.38,193.6 340.18,202.23" fill="rgb(101,137,170)" stroke="rgb(101,137,170)" stroke-width="0.35"/>
<polygon points="160.02,297.91 135.88,313.23 160.28,340.71 183.56,323.17" fill="rgb(52,67,83)" stroke="rgb(52,67,83)" stroke-width="0.35"/>
<polygon points="211.97,343.46 243,359.29 263.72,333.29 233.21,319.6" fill="rgb(51,66,83)" stroke="rgb(51,66,83)" stroke-width="0.35"/>
<polygon points="133.08,233.01 104.96,245.45 117.57,280.91 143.61,267.23" fill="rgb(61,79,99)" stroke="rgb(61,79,99)" stroke-width="0.35"/>
<polygon points="311.57,312.53 281.09,302.82 263.72,333.29 294.47,343.69" fill="rgb(52,67,84)" stroke="rgb(52,67,84)" stroke-width="0.35"/>
<polygon points="160.02,297.91 143.61,267.23 117.57,280.91 135.88,313.23" fill="rgb(54,71,89)" stroke="rgb(54,71,89)" stroke-width="0.35"/>
<polygon points="195.08,149.44 195.69,118.45 160.17,122.24 158.95,153.95" fill="rgb(114,155,193)" stroke="rgb(114,155,193)" stroke-width="0.35"/>
<polygon points="125.4,161.64 127.18,197.14 160.17,188.31 158.95,153.95" fill="rgb(88,119,148)" stroke="rgb(88,119,148)" stroke-width="0.35"/>
<polygon points="270.81,151.21 270.13,118.26 232.79,117.03 232.82,148.65" fill="rgb(125,171,213)" stroke="rgb(125,171,213)" stroke-width="0.35"/>
<polygon points="334.44,240.29 340.18,202.23 306.38,193.6 301.87,231.33" fill="rgb(87,117,146)" stroke="rgb(87,117,146)" stroke-width="0.35"/>
<polygon points="195.08,149.44 232.82,148.65 232.79,117.03 195.69,118.45" fill="rgb(123,169,210)" stroke="rgb(123,169,210)" stroke-width="0.35"/>
<polygon points="211.97,343.46 233.21,319.6 205.46,303.28 183.56,323.17" fill="rgb(52,67,84)" stroke="rgb(52,67,84)" stroke-width="0.35"/>
<polygon points="311.57,312.53 324.9,277.56 293.63,268.28 281.09,302.82" fill="rgb(60,78,98)" stroke="rgb(60,78,98)" stroke-width="0.35"/>
<polygon points="334.44,240.29 301.87,231.33 293.63,268.28 324.9,277.56" fill="rgb(73,97,121)" stroke="rgb(73,97,121)" stroke-width="0.35"/>
<polygon points="270.81,151.21 270.13,186.89 306.38,193.6 307.7,156.75" fill="rgb(107,145,181)" stroke="rgb(107,145,181)" stroke-width="0.35"/>
<polygon points="133.08,233.01 164.06,222.79 160.17,188.31 127.18,197.14" fill="rgb(77,103,129)" stroke="rgb(77,103,129)" stroke-width="0.35"/>
<polygon points="250.4,291.43 233.21,319.6 263.72,333.29 281.09,302.82" fill="rgb(54,69,87)" stroke="rgb(54,69,87)" stroke-width="0.35"/>
<polygon points="160.02,297.91 183.56,323.17 205.46,303.28 183.62,282.35" fill="rgb(54,70,88)" stroke="rgb(54,70,88)" stroke-width="0.35"/>
<polygon points="195.08,149.44 158.95,153.95 160.17,188.31 195.69,183.25" fill="rgb(99,135,168)" stroke="rgb(99,135,168)" stroke-width="0.35"/>
<polygon points="133.08,233.01 143.61,267.23 170.85,254.82 164.06,222.79" fill="rgb(67,89,111)" stroke="rgb(67,89,111)" stroke-width="0.35"/>
<polygon points="160.02,297.91 183.62,282.35 170.85,254.82 143.61,267.23" fill="rgb(59,77,97)" stroke="rgb(59,77,97)" stroke-width="0.35"/>
<polygon points="270.81,151.21 232.82,148.65 232.79,183.1 270.13,186.89" fill="rgb(110,149,186)" stroke="rgb(110,149,186)" stroke-width="0.35"/>
<polygon points="267.22,223.39 301.87,231.33 306.38,193.6 270.13,186.89" fill="rgb(92,124,155)" stroke="rgb(92,124,155)" stroke-width="0.35"/>
<polygon points="250.4,291.43 222.12,279.59 205.46,303.28 233.21,319.6" fill="rgb(56,73,91)" stroke="rgb(56,73,91)" stroke-width="0.35"/>
<polygon points="195.08,149.44 195.69,183.25 232.79,183.1 232.82,148.65" fill="rgb(108,146,182)" stroke="rgb(108,146,182)" stroke-width="0.35"/>
<polygon points="250.4,291.43 281.09,302.82 293.63,268.28 261.19,258.8" fill="rgb(63,83,104)" stroke="rgb(63,83,104)" stroke-width="0.35"/>
<polygon points="201.65,270.06 183.62,282.35 205.46,303.28 222.12,279.59" fill="rgb(59,78,97)" stroke="rgb(59,78,97)" stroke-width="0.35"/>
<polygon points="267.22,223.39 261.19,258.8 293.63,268.28 301.87,231.33" fill="rgb(77,103,128)" stroke="rgb(77,103,128)" stroke-width="0.35"/>
<polygon points="197.24,217.01 195.69,183.25 160.17,188.31 164.06,222.79" fill="rgb(86,116,144)" stroke="rgb(86,116,144)" stroke-width="0.35"/>
<polygon points="201.65,270.06 199.48,247.88 170.85,254.82 183.62,282.35" fill="rgb(64,85,106)" stroke="rgb(64,85,106)" stroke-width="0.35"/>
<polygon points="197.24,217.01 164.06,222.79 170.85,254.82 199.48,247.88" fill="rgb(74,98,123)" stroke="rgb(74,98,123)" stroke-width="0.35"/>
<polygon points="267.22,223.39 270.13,186.89 232.79,183.1 231.99,217.91" fill="rgb(94,127,159)" stroke="rgb(94,127,159)" stroke-width="0.35"/>
<polygon points="250.4,291.43 261.19,258.8 229.7,250.6 222.12,279.59" fill="rgb(66,87,108)" stroke="rgb(66,87,108)" stroke-width="0.35"/>
<polygon points="197.24,217.01 231.99,217.91 232.79,183.1 195.69,183.25" fill="rgb(93,125,156)" stroke="rgb(93,125,156)" stroke-width="0.35"/>
<polygon points="201.65,270.06 222.12,279.59 229.7,250.6 199.48,247.88" fill="rgb(66,88,110)" stroke="rgb(66,88,110)" stroke-width="0.35"/>
<polygon points="267.22,223.39 231.99,217.91 229.7,250.6 261.19,258.8" fill="rgb(79,106,132)" stroke="rgb(79,106,132)" stroke-width="0.35"/>
<polygon points="197.24,217.01 199.48,247.88 229.7,250.6 231.99,217.91" fill="rgb(78,105,131)" stroke="rgb(78,105,131)" stroke-width="0.35"/>
<text x="16" y="430" fill="#8b98a8" font-family="ui-monospace,monospace" font-size="13">painted</text>
<text x="16" y="447" fill="#5d6874" font-family="ui-monospace,monospace" font-size="11">386 verts · 384 faces · 189 drawn</text>
</svg>
