<svg xmlns="http://www.w3.org/2000/svg" viewBox="0 0 460 460" width="460" height="460">
<rect width="100%" height="100%" fill="#14161a"/>
<polygon points="87.32,210.56 138.77,214.62 143.92,196.29 97.61,173.91" fill="rgb(66,87,109)" stroke="rgb(66,87,109)" stroke-width="0.35"/>
<polygon points="97.61,173.91 143.92,196.29 150.85,178.82 111.46,138.97" fill="rgb(66,87,109)" stroke="rgb(66,87,109)" stroke-width="0.35"/>
<polygon points="80.98,247.52 135.6,233.1 138.77,214.62 87.32,210.56" fill="rgb(66,87,109)" stroke="rgb(66,87,109)" stroke-width="0.35"/>
<polygon points="111.46,138.97 150.85,178.82 159.29,162.89 128.34,107.11" fill="rgb(66,87,109)" stroke="rgb(66,87,109)" stroke-width="0.35"/>
<polygon points="78.84,283.38 134.53,251.03 135.6,233.1 80.98,247.52" fill="rgb(66,87,109)" stroke="rgb(66,87,109)" stroke-width="0.35"/>
<polygon points="138.77,214.62 218.31,237.27 223.46,218.94 143.92,196.29" fill="rgb(67,89,111)" stroke="rgb(67,89,111)" stroke-width="0.35"/>
<polygon points="143.92,196.29 223.46,218.94 230.39,201.48 150.85,178.82" fill="rgb(57,74,93)" stroke="rgb(57,74,93)" stroke-width="0.35"/>
<polygon points="135.6,233.1 215.15,255.75 218.31,237.27 138.77,214.62" fill="rgb(81,108,135)" stroke="rgb(81,108,135)" stroke-width="0.35"/>
<polygon points="128.34,107.11 159.29,162.89 168.91,149.1 147.6,79.52" fill="rgb(66,87,109)" stroke="rgb(66,87,109)" stroke-width="0.35"/>
<polygon points="80.98,316.75 135.6,267.71 134.53,251.03 78.84,283.38" fill="rgb(66,87,109)" stroke="rgb(66,87,109)" stroke-width="0.35"/>
<polygon points="150.85,178.82 230.39,201.48 238.83,185.54 159.29,162.89" fill="rgb(52,67,84)" stroke="rgb(52,67,84)" stroke-width="0.35"/>
<polygon points="134.53,251.03 214.08,273.68 215.15,255.75 135.6,233.1" fill="rgb(96,129,161)" stroke="rgb(96,129,161)" stroke-width="0.35"/>
<polygon points="159.29,162.89 238.83,185.54 248.46,171.75 168.91,149.1" fill="rgb(51,66,83)" stroke="rgb(51,66,83)" stroke-width="0.35"/>
<polygon points="135.6,267.71 215.15,290.36 214.08,273.68 134.53,251.03" fill="rgb(110,150,186)" stroke="rgb(110,150,186)" stroke-width="0.35"/>
<polygon points="147.6,79.52 168.91,149.1 179.36,137.98 168.5,57.29" fill="rgb(66,87,109)" stroke="rgb(66,87,109)" stroke-width="0.35"/>
<polygon points="87.32,346.35 138.77,282.51 135.6,267.71 80.98,316.75" fill="rgb(66,87,109)" stroke="rgb(66,87,109)" stroke-width="0.35"/>
<polygon points="168.91,149.1 248.46,171.75 258.91,160.63 179.36,137.98" fill="rgb(51,66,83)" stroke="rgb(51,66,83)" stroke-width="0.35"/>
<polygon points="138.77,282.51 218.31,305.16 215.15,290.36 135.6,267.71" fill="rgb(121,166,206)" stroke="rgb(121,166,206)" stroke-width="0.35"/>
<polygon points="179.36,137.98 258.91,160.63 269.77,152.62 190.23,129.97" fill="rgb(51,66,83)" stroke="rgb(51,66,83)" stroke-width="0.35"/>
<polygon points="143.92,294.86 223.46,317.51 218.31,305.16 138.77,282.51" fill="rgb(128,175,218)" stroke="rgb(128,175,218)" stroke-width="0.35"/>
<polygon points="168.5,57.29 179.36,137.98 190.23,129.97 190.23,41.26" fill="rgb(66,87,109)" stroke="rgb(66,87,109)" stroke-width="0.35"/>
<polygon points="97.61,371.04 143.92,294.86 138.77,282.51 87.32,346.35" fill="rgb(66,87,109)" stroke="rgb(66,87,109)" stroke-width="0.35"/>
<polygon points="190.23,129.97 269.77,152.62 280.64,148.01 201.09,125.36" fill="rgb(51,66,83)" stroke="rgb(51,66,83)" stroke-width="0.35"/>
<polygon points="150.85,304.28 230.39,326.93 223.46,317.51 143.92,294.86" fill="rgb(128,176,219)" stroke="rgb(128,176,219)" stroke-width="0.35"/>
<polygon points="190.23,41.26 190.23,129.97 201.09,125.36 211.96,32.04" fill="rgb(66,87,109)" stroke="rgb(66,87,109)" stroke-width="0.35"/>
<polygon points="111.46,389.88 150.85,304.28 143.92,294.86 97.61,371.04" fill="rgb(66,87,109)" stroke="rgb(66,87,109)" stroke-width="0.35"/>
<polygon points="201.09,125.36 280.64,148.01 291.09,146.99 211.54,124.34" fill="rgb(51,66,83)" stroke="rgb(51,66,83)" stroke-width="0.35"/>
<polygon points="159.29,310.41 238.83,333.06 230.39,326.93 150.85,304.28" fill="rgb(123,169,210)" stroke="rgb(123,169,210)" stroke-width="0.35"/>
<polygon points="211.96,32.04 201.09,125.36 211.54,124.34 232.86,30" fill="rgb(66,87,109)" stroke="rgb(66,87,109)" stroke-width="0.35"/>
<polygon points="128.34,402.14 159.29,310.41 150.85,304.28 111.46,389.88" fill="rgb(66,87,109)" stroke="rgb(66,87,109)" stroke-width="0.35"/>
<polygon points="232.86,30 211.54,124.34 221.17,126.94 252.12,35.21" fill="rgb(66,87,109)" stroke="rgb(66,87,109)" stroke-width="0.35"/>
<polygon points="147.6,407.35 168.91,313.01 159.29,310.41 128.34,402.14" fill="rgb(66,87,109)" stroke="rgb(66,87,109)" stroke-width="0.35"/>
<polygon points="331.66,57.86 252.12,35.21 269,47.47 348.54,70.12" fill="rgb(123,169,210)" stroke="rgb(123,169,210)" stroke-width="0.35"/>
<polygon points="248.04,427.96 168.5,405.3 147.6,407.35 227.14,430" fill="rgb(51,66,83)" stroke="rgb(51,66,83)" stroke-width="0.35"/>
<polygon points="252.12,35.21 221.17,126.94 229.61,133.07 269,47.47" fill="rgb(66,87,109)" stroke="rgb(66,87,109)" stroke-width="0.35"/>
<polygon points="168.5,405.3 179.36,311.99 168.91,313.01 147.6,407.35" fill="rgb(66,87,109)" stroke="rgb(66,87,109)" stroke-width="0.35"/>
<polygon points="348.54,70.12 269,47.47 282.85,66.31 362.39,88.96" fill="rgb(128,176,219)" stroke="rgb(128,176,219)" stroke-width="0.35"/>
<polygon points="269.77,418.74 190.23,396.09 168.5,405.3 248.04,427.96" fill="rgb(51,66,83)" stroke="rgb(51,66,83)" stroke-width="0.35"/>
<polygon points="269,47.47 229.61,133.07 236.54,142.49 282.85,66.31" fill="rgb(66,87,109)" stroke="rgb(66,87,109)" stroke-width="0.35"/>
<polygon points="190.23,396.09 190.23,307.38 179.36,311.99 168.5,405.3" fill="rgb(66,87,109)" stroke="rgb(66,87,109)" stroke-width="0.35"/>
<polygon points="362.39,88.96 282.85,66.31 293.14,91 372.68,113.65" fill="rgb(128,175,218)" stroke="rgb(128,175,218)" stroke-width="0.35"/>
<polygon points="291.5,402.71 211.96,380.06 190.23,396.09 269.77,418.74" fill="rgb(51,66,83)" stroke="rgb(51,66,83)" stroke-width="0.35"/>
<polygon points="282.85,66.31 236.54,142.49 241.69,154.84 293.14,91" fill="rgb(66,87,109)" stroke="rgb(66,87,109)" stroke-width="0.35"/>
<polygon points="211.96,380.06 201.09,299.37 190.23,307.38 190.23,396.09" fill="rgb(66,87,109)" stroke="rgb(66,87,109)" stroke-width="0.35"/>
<polygon points="293.14,91 241.69,154.84 244.85,169.64 299.48,120.6" fill="rgb(66,87,109)" stroke="rgb(66,87,109)" stroke-width="0.35"/>
<polygon points="232.86,357.82 211.54,288.25 201.09,299.37 211.96,380.06" fill="rgb(66,87,109)" stroke="rgb(66,87,109)" stroke-width="0.35"/>
<polygon points="372.68,113.65 293.14,91 299.48,120.6 379.02,143.25" fill="rgb(121,166,206)" stroke="rgb(121,166,206)" stroke-width="0.35"/>
<polygon points="312.4,380.48 232.86,357.82 211.96,380.06 291.5,402.71" fill="rgb(51,66,83)" stroke="rgb(51,66,83)" stroke-width="0.35"/>
<polygon points="299.48,120.6 244.85,169.64 245.93,186.32 301.62,153.97" fill="rgb(66,87,109)" stroke="rgb(66,87,109)" stroke-width="0.35"/>
<polygon points="252.12,330.24 221.17,274.46 211.54,288.25 232.86,357.82" fill="rgb(66,87,109)" stroke="rgb(66,87,109)" stroke-width="0.35"/>
<polygon points="379.02,143.25 299.48,120.6 301.62,153.97 381.16,176.62" fill="rgb(110,150,186)" stroke="rgb(110,150,186)" stroke-width="0.35"/>
<polygon points="331.66,352.89 252.12,330.24 232.86,357.82 312.4,380.48" fill="rgb(51,66,83)" stroke="rgb(51,66,83)" stroke-width="0.35"/>
<polygon points="301.62,153.97 245.93,186.32 244.85,204.25 299.48,189.82" fill="rgb(66,87,109)" stroke="rgb(66,87,109)" stroke-width="0.35"/>
<polygon points="269,298.37 229.61,258.52 221.17,274.46 252.12,330.24" fill="rgb(66,87,109)" stroke="rgb(66,87,109)" stroke-width="0.35"/>
<polygon points="299.48,189.82 244.85,204.25 241.69,222.73 293.14,226.79" fill="rgb(66,87,109)" stroke="rgb(66,87,109)" stroke-width="0.35"/>
<polygon points="282.85,263.44 236.54,241.06 229.61,258.52 269,298.37" fill="rgb(66,87,109)" stroke="rgb(66,87,109)" stroke-width="0.35"/>
<polygon points="293.14,226.79 241.69,222.73 236.54,241.06 282.85,263.44" fill="rgb(66,87,109)" stroke="rgb(66,87,109)" stroke-width="0.35"/>
<polygon points="381.16,176.62 301.62,153.97 299.48,189.82 379.02,212.48" fill="rgb(96,129,161)" stroke="rgb(96,129,161)" stroke-width="0.35"/>
<polygon points="348.54,321.03 269,298.37 252.12,330.24 331.66,352.89" fill="rgb(52,67,84)" stroke="rgb(52,67,84)" stroke-width="0.35"/>
<polygon points="379.02,212.48 299.48,189.82 293.14,226.79 372.68,249.44" fill="rgb(81,108,135)" stroke="rgb(81,108,135)" stroke-width="0.35"/>
<polygon points="362.39,286.09 282.85,263.44 269,298.37 348.54,321.03" fill="rgb(57,74,93)" stroke="rgb(57,74,93)" stroke-width="0.35"/>
<polygon points="372.68,249.44 293.14,226.79 282.85,263.44 362.39,286.09" fill="rgb(67,89,111)" stroke="rgb(67,89,111)" stroke-width="0.35"/>
<text x="16" y="430" fill="#8b98a8" font-family="ui-monospace,monospace" font-size="13">sketch_torus</text>
<text x="16" y="447" fill="#5d6874" font-family="ui-monospace,monospace" font-size="11">128 verts · 128 faces · 62 drawn</text>
</svg>
