# generated by Effigy
# 24 vertices, 18 faces
o effigy_export
v -40 -79.5 -40
v 40 -79.5 -40
v 40 79.5 -40
v -40 79.5 -40
v -40 -79.5 40
v 40 -79.5 40
v 40 79.5 40
v -40 79.5 40
v 31.925 -79.5 40
v 40 -79.5 40
v 40 79.5 40
v 31.925 79.5 40
v 31.925 -79.5 44
v 40 -79.5 44
v 40 79.5 44
v 31.925 79.5 44
v 40 -19.23697 -23.2321
v 40 20.76303 -23.2321
v 40 20.76303 16.7679
v 40 -19.23697 16.7679
v 115 -19.23697 -23.2321
v 115 20.76303 -23.2321
v 115 20.76303 16.7679
v 115 -19.23697 16.7679
vt 0 0
vt 1 0
vt 1 1
vt 0 1
vt 0.003906 0
vt 0.003906 0.003906
vt 0 0.003906
vt 4 0
vt 4 4
vt 0 4
vt 0.024166 0
vt 0.024166 1
vt 0.5 0
vt 0.5 1
vt 0.524166 0
vt 0.524166 1
vt 50.85443 20
vt 50.85443 28.075
vt -108.1456 28.075
vt -108.1456 20
vt 0.25 0
vt 0.25 1
vt 0.75 0
vt 0.75 1
vt 0 -60
vt 40 -60
vt 40 -20
vt 0 -20
vn 0 0 -1
vn 0 0 1
vn 0 -1 0
vn 1 0 0
vn 0 1 0
vn -1 0 0
usemtl material_0
f 1/1/1 4/2/1 3/3/1 2/4/1
usemtl materials/diner/diner_tile_floor.vmat
f 5/1/2 6/5/2 7/6/2 8/7/2
usemtl materials/diner/_rough_probe.vmat
f 1/1/3 2/8/3 6/9/3 5/10/3
f 2/1/4 3/8/4 7/9/4 6/10/4
usemtl material_0
f 3/1/5 4/2/5 8/3/5 7/4/5
f 4/1/6 1/2/6 5/3/6 8/4/6
f 9/1/3 10/11/3 14/12/3 13/4/3
f 10/11/4 11/13/4 15/14/4 14/12/4
f 11/13/5 12/15/5 16/16/5 15/14/5
f 12/15/6 9/2/6 13/3/6 16/16/6
f 13/17/2 14/18/2 15/19/2 16/20/2
f 12/20/1 11/19/1 10/18/1 9/17/1
f 17/1/1 18/21/1 22/22/1 21/4/1
f 18/21/5 19/13/5 23/14/5 22/22/5
f 19/13/2 20/23/2 24/24/2 23/14/2
f 20/23/3 17/2/3 21/3/3 24/24/3
f 21/25/4 22/26/4 23/27/4 24/28/4
f 20/28/6 19/27/6 18/26/6 17/25/6
