version 1
nodes
0 "bone_1" -1
end
skeleton
time 0
0 0.257672 -0.41762 0.447701 -1.34513 0.125108 1.570796
end
triangles
material_0
0 0.5 0 0.5 1 0 0 0 1 1 0 1
0 0.5 0 -0.5 1 0 0 0 0 1 0 1
0 0.46194 0.191342 -0.5 0.92388 0.382684 0 0.0625 0 1 0 1
material_0
0 0.46194 0.191342 -0.5 0.92388 0.382684 0 0.0625 0 1 0 1
0 0.46194 0.191342 0.5 0.92388 0.382684 0 0.0625 1 1 0 1
0 0.5 0 0.5 1 0 0 0 1 1 0 1
material_0
0 0.46194 0.191342 0.5 0.92388 0.382684 0 0.0625 1 1 0 1
0 0.46194 0.191342 -0.5 0.92388 0.382684 0 0.0625 0 1 0 1
0 0.353553 0.353553 -0.5 0.707107 0.707107 0 0.125 0 1 0 1
material_0
0 0.353553 0.353553 -0.5 0.707107 0.707107 0 0.125 0 1 0 1
0 0.353553 0.353553 0.5 0.707107 0.707107 0 0.125 1 1 0 1
0 0.46194 0.191342 0.5 0.92388 0.382684 0 0.0625 1 1 0 1
material_0
0 0.353553 0.353553 0.5 0.707107 0.707107 0 0.125 1 1 0 1
0 0.353553 0.353553 -0.5 0.707107 0.707107 0 0.125 0 1 0 1
0 0.191342 0.46194 -0.5 0.382684 0.92388 0 0.1875 0 1 0 1
material_0
0 0.191342 0.46194 -0.5 0.382684 0.92388 0 0.1875 0 1 0 1
0 0.191342 0.46194 0.5 0.382684 0.92388 0 0.1875 1 1 0 1
0 0.353553 0.353553 0.5 0.707107 0.707107 0 0.125 1 1 0 1
material_0
0 0.191342 0.46194 0.5 0.382684 0.92388 0 0.1875 1 1 0 1
0 0.191342 0.46194 -0.5 0.382684 0.92388 0 0.1875 0 1 0 1
0 -0 0.5 -0.5 0 1 0 0.25 0 1 0 1
material_0
0 -0 0.5 -0.5 0 1 0 0.25 0 1 0 1
0 -0 0.5 0.5 0 1 0 0.25 1 1 0 1
0 0.191342 0.46194 0.5 0.382684 0.92388 0 0.1875 1 1 0 1
material_0
0 -0 0.5 0.5 0 1 0 0.25 1 1 0 1
0 -0 0.5 -0.5 0 1 0 0.25 0 1 0 1
0 -0.191342 0.46194 -0.5 -0.382684 0.92388 0 0.3125 0 1 0 1
material_0
0 -0.191342 0.46194 -0.5 -0.382684 0.92388 0 0.3125 0 1 0 1
0 -0.191342 0.46194 0.5 -0.382684 0.92388 0 0.3125 1 1 0 1
0 -0 0.5 0.5 0 1 0 0.25 1 1 0 1
material_0
0 -0.191342 0.46194 0.5 -0.382684 0.92388 0 0.3125 1 1 0 1
0 -0.191342 0.46194 -0.5 -0.382684 0.92388 0 0.3125 0 1 0 1
0 -0.353553 0.353553 -0.5 -0.707107 0.707107 0 0.375 0 1 0 1
material_0
0 -0.353553 0.353553 -0.5 -0.707107 0.707107 0 0.375 0 1 0 1
0 -0.353553 0.353553 0.5 -0.707107 0.707107 0 0.375 1 1 0 1
0 -0.191342 0.46194 0.5 -0.382684 0.92388 0 0.3125 1 1 0 1
material_0
0 -0.353553 0.353553 0.5 -0.707107 0.707107 0 0.375 1 1 0 1
0 -0.353553 0.353553 -0.5 -0.707107 0.707107 0 0.375 0 1 0 1
0 -0.46194 0.191342 -0.5 -0.92388 0.382683 0 0.4375 0 1 0 1
material_0
0 -0.46194 0.191342 -0.5 -0.92388 0.382683 0 0.4375 0 1 0 1
0 -0.46194 0.191342 0.5 -0.92388 0.382683 0 0.4375 1 1 0 1
0 -0.353553 0.353553 0.5 -0.707107 0.707107 0 0.375 1 1 0 1
material_0
0 -0.46194 0.191342 0.5 -0.92388 0.382683 0 0.4375 1 1 0 1
0 -0.46194 0.191342 -0.5 -0.92388 0.382683 0 0.4375 0 1 0 1
0 -0.5 -0 -0.5 -1 -0 0 0.5 0 1 0 1
material_0
0 -0.5 -0 -0.5 -1 -0 0 0.5 0 1 0 1
0 -0.5 -0 0.5 -1 -0 0 0.5 1 1 0 1
0 -0.46194 0.191342 0.5 -0.92388 0.382683 0 0.4375 1 1 0 1
material_0
0 -0.5 -0 0.5 -1 -0 0 0.5 1 1 0 1
0 -0.5 -0 -0.5 -1 -0 0 0.5 0 1 0 1
0 -0.46194 -0.191342 -0.5 -0.923879 -0.382684 0 0.5625 0 1 0 1
material_0
0 -0.46194 -0.191342 -0.5 -0.923879 -0.382684 0 0.5625 0 1 0 1
0 -0.46194 -0.191342 0.5 -0.923879 -0.382684 0 0.5625 1 1 0 1
0 -0.5 -0 0.5 -1 -0 0 0.5 1 1 0 1
material_0
0 -0.46194 -0.191342 0.5 -0.923879 -0.382684 0 0.5625 1 1 0 1
0 -0.46194 -0.191342 -0.5 -0.923879 -0.382684 0 0.5625 0 1 0 1
0 -0.353553 -0.353553 -0.5 -0.707107 -0.707107 0 0.625 0 1 0 1
material_0
0 -0.353553 -0.353553 -0.5 -0.707107 -0.707107 0 0.625 0 1 0 1
0 -0.353553 -0.353553 0.5 -0.707107 -0.707107 0 0.625 1 1 0 1
0 -0.46194 -0.191342 0.5 -0.923879 -0.382684 0 0.5625 1 1 0 1
material_0
0 -0.353553 -0.353553 0.5 -0.707107 -0.707107 0 0.625 1 1 0 1
0 -0.353553 -0.353553 -0.5 -0.707107 -0.707107 0 0.625 0 1 0 1
0 -0.191342 -0.46194 -0.5 -0.382683 -0.92388 0 0.6875 0 1 0 1
material_0
0 -0.191342 -0.46194 -0.5 -0.382683 -0.92388 0 0.6875 0 1 0 1
0 -0.191342 -0.46194 0.5 -0.382683 -0.92388 0 0.6875 1 1 0 1
0 -0.353553 -0.353553 0.5 -0.707107 -0.707107 0 0.625 1 1 0 1
material_0
0 -0.191342 -0.46194 0.5 -0.382683 -0.92388 0 0.6875 1 1 0 1
0 -0.191342 -0.46194 -0.5 -0.382683 -0.92388 0 0.6875 0 1 0 1
0 0 -0.5 -0.5 0 -1 0 0.75 0 1 0 1
material_0
0 0 -0.5 -0.5 0 -1 0 0.75 0 1 0 1
0 0 -0.5 0.5 0 -1 0 0.75 1 1 0 1
0 -0.191342 -0.46194 0.5 -0.382683 -0.92388 0 0.6875 1 1 0 1
material_0
0 0 -0.5 0.5 0 -1 0 0.75 1 1 0 1
0 0 -0.5 -0.5 0 -1 0 0.75 0 1 0 1
0 0.191342 -0.46194 -0.5 0.382684 -0.92388 0 0.8125 0 1 0 1
material_0
0 0.191342 -0.46194 -0.5 0.382684 -0.92388 0 0.8125 0 1 0 1
0 0.191342 -0.46194 0.5 0.382684 -0.92388 0 0.8125 1 1 0 1
0 0 -0.5 0.5 0 -1 0 0.75 1 1 0 1
material_0
0 0.191342 -0.46194 0.5 0.382684 -0.92388 0 0.8125 1 1 0 1
0 0.191342 -0.46194 -0.5 0.382684 -0.92388 0 0.8125 0 1 0 1
0 0.353554 -0.353553 -0.5 0.707107 -0.707107 0 0.875 0 1 0 1
material_0
0 0.353554 -0.353553 -0.5 0.707107 -0.707107 0 0.875 0 1 0 1
0 0.353554 -0.353553 0.5 0.707107 -0.707107 0 0.875 1 1 0 1
0 0.191342 -0.46194 0.5 0.382684 -0.92388 0 0.8125 1 1 0 1
material_0
0 0.353554 -0.353553 0.5 0.707107 -0.707107 0 0.875 1 1 0 1
0 0.353554 -0.353553 -0.5 0.707107 -0.707107 0 0.875 0 1 0 1
0 0.46194 -0.191342 -0.5 0.92388 -0.382683 0 0.9375 0 1 0 1
material_0
0 0.46194 -0.191342 -0.5 0.92388 -0.382683 0 0.9375 0 1 0 1
0 0.46194 -0.191342 0.5 0.92388 -0.382683 0 0.9375 1 1 0 1
0 0.353554 -0.353553 0.5 0.707107 -0.707107 0 0.875 1 1 0 1
material_0
0 0.46194 -0.191342 0.5 0.92388 -0.382683 0 0.9375 1 1 0 1
0 0.46194 -0.191342 -0.5 0.92388 -0.382683 0 0.9375 0 1 0 1
0 0.5 0 -0.5 1 0 0 1 0 1 0 1
material_0
0 0.5 0 -0.5 1 0 0 1 0 1 0 1
0 0.5 0 0.5 1 0 0 1 1 1 0 1
0 0.46194 -0.191342 0.5 0.92388 -0.382683 0 0.9375 1 1 0 1
material_0
0 0.5 0 -0.5 -0 0 -1 1 0.5 1 0 1
0 0.46194 -0.191342 -0.5 -0 0 -1 0.96194 0.308658 1 0 1
0 0.353554 -0.353553 -0.5 -0 0 -1 0.853554 0.146447 1 0 1
material_0
0 0.5 0 -0.5 -0 0 -1 1 0.5 1 0 1
0 0.353554 -0.353553 -0.5 -0 0 -1 0.853554 0.146447 1 0 1
0 0.191342 -0.46194 -0.5 -0 0 -1 0.691342 0.03806 1 0 1
material_0
0 0.5 0 -0.5 -0 0 -1 1 0.5 1 0 1
0 0.191342 -0.46194 -0.5 -0 0 -1 0.691342 0.03806 1 0 1
0 0 -0.5 -0.5 -0 0 -1 0.5 0 1 0 1
material_0
0 0.5 0 -0.5 -0 0 -1 1 0.5 1 0 1
0 0 -0.5 -0.5 -0 0 -1 0.5 0 1 0 1
0 -0.191342 -0.46194 -0.5 -0 0 -1 0.308658 0.03806 1 0 1
material_0
0 0.5 0 -0.5 -0 0 -1 1 0.5 1 0 1
0 -0.191342 -0.46194 -0.5 -0 0 -1 0.308658 0.03806 1 0 1
0 -0.353553 -0.353553 -0.5 -0 0 -1 0.146447 0.146447 1 0 1
material_0
0 0.5 0 -0.5 -0 0 -1 1 0.5 1 0 1
0 -0.353553 -0.353553 -0.5 -0 0 -1 0.146447 0.146447 1 0 1
0 -0.46194 -0.191342 -0.5 -0 0 -1 0.03806 0.308658 1 0 1
material_0
0 0.5 0 -0.5 -0 0 -1 1 0.5 1 0 1
0 -0.46194 -0.191342 -0.5 -0 0 -1 0.03806 0.308658 1 0 1
0 -0.5 -0 -0.5 -0 0 -1 0 0.5 1 0 1
material_0
0 0.5 0 -0.5 -0 0 -1 1 0.5 1 0 1
0 -0.5 -0 -0.5 -0 0 -1 0 0.5 1 0 1
0 -0.46194 0.191342 -0.5 -0 0 -1 0.03806 0.691342 1 0 1
material_0
0 0.5 0 -0.5 -0 0 -1 1 0.5 1 0 1
0 -0.46194 0.191342 -0.5 -0 0 -1 0.03806 0.691342 1 0 1
0 -0.353553 0.353553 -0.5 -0 0 -1 0.146447 0.853553 1 0 1
material_0
0 0.5 0 -0.5 -0 0 -1 1 0.5 1 0 1
0 -0.353553 0.353553 -0.5 -0 0 -1 0.146447 0.853553 1 0 1
0 -0.191342 0.46194 -0.5 -0 0 -1 0.308658 0.96194 1 0 1
material_0
0 0.5 0 -0.5 -0 0 -1 1 0.5 1 0 1
0 -0.191342 0.46194 -0.5 -0 0 -1 0.308658 0.96194 1 0 1
0 -0 0.5 -0.5 -0 0 -1 0.5 1 1 0 1
material_0
0 0.5 0 -0.5 -0 0 -1 1 0.5 1 0 1
0 -0 0.5 -0.5 -0 0 -1 0.5 1 1 0 1
0 0.191342 0.46194 -0.5 -0 0 -1 0.691342 0.96194 1 0 1
material_0
0 0.5 0 -0.5 -0 0 -1 1 0.5 1 0 1
0 0.191342 0.46194 -0.5 -0 0 -1 0.691342 0.96194 1 0 1
0 0.353553 0.353553 -0.5 -0 0 -1 0.853553 0.853553 1 0 1
material_0
0 0.353553 0.353553 -0.5 -0 0 -1 0.853553 0.853553 1 0 1
0 0.46194 0.191342 -0.5 -0 0 -1 0.96194 0.691342 1 0 1
0 0.5 0 -0.5 -0 0 -1 1 0.5 1 0 1
materials/halo/characters/brute/halo_0.vmat
0 0.46194 -0.191342 0.5 0 0 1 0.96194 0.308658 1 0 1
0 0.5 0 0.5 0 0 1 1 0.5 1 0 1
0 0.46194 0.191342 0.5 0 0 1 0.96194 0.691342 1 0 1
materials/halo/characters/brute/halo_0.vmat
0 0.46194 -0.191342 0.5 0 0 1 0.96194 0.308658 1 0 1
0 0.46194 0.191342 0.5 0 0 1 0.96194 0.691342 1 0 1
0 0.353553 0.353553 0.5 0 0 1 0.853553 0.853553 1 0 1
materials/halo/characters/brute/halo_0.vmat
0 0.46194 -0.191342 0.5 0 0 1 0.96194 0.308658 1 0 1
0 0.353553 0.353553 0.5 0 0 1 0.853553 0.853553 1 0 1
0 0.191342 0.46194 0.5 0 0 1 0.691342 0.96194 1 0 1
materials/halo/characters/brute/halo_0.vmat
0 0.46194 -0.191342 0.5 0 0 1 0.96194 0.308658 1 0 1
0 0.191342 0.46194 0.5 0 0 1 0.691342 0.96194 1 0 1
0 -0 0.5 0.5 0 0 1 0.5 1 1 0 1
materials/halo/characters/brute/halo_0.vmat
0 0.46194 -0.191342 0.5 0 0 1 0.96194 0.308658 1 0 1
0 -0 0.5 0.5 0 0 1 0.5 1 1 0 1
0 -0.191342 0.46194 0.5 0 0 1 0.308658 0.96194 1 0 1
materials/halo/characters/brute/halo_0.vmat
0 0.46194 -0.191342 0.5 0 0 1 0.96194 0.308658 1 0 1
0 -0.191342 0.46194 0.5 0 0 1 0.308658 0.96194 1 0 1
0 -0.353553 0.353553 0.5 0 0 1 0.146447 0.853553 1 0 1
materials/halo/characters/brute/halo_0.vmat
0 0.46194 -0.191342 0.5 0 0 1 0.96194 0.308658 1 0 1
0 -0.353553 0.353553 0.5 0 0 1 0.146447 0.853553 1 0 1
0 -0.46194 0.191342 0.5 0 0 1 0.03806 0.691342 1 0 1
materials/halo/characters/brute/halo_0.vmat
0 0.46194 -0.191342 0.5 0 0 1 0.96194 0.308658 1 0 1
0 -0.46194 0.191342 0.5 0 0 1 0.03806 0.691342 1 0 1
0 -0.5 -0 0.5 0 0 1 0 0.5 1 0 1
materials/halo/characters/brute/halo_0.vmat
0 0.46194 -0.191342 0.5 0 0 1 0.96194 0.308658 1 0 1
0 -0.5 -0 0.5 0 0 1 0 0.5 1 0 1
0 -0.46194 -0.191342 0.5 0 0 1 0.03806 0.308658 1 0 1
materials/halo/characters/brute/halo_0.vmat
0 0.46194 -0.191342 0.5 0 0 1 0.96194 0.308658 1 0 1
0 -0.46194 -0.191342 0.5 0 0 1 0.03806 0.308658 1 0 1
0 -0.353553 -0.353553 0.5 0 0 1 0.146447 0.146447 1 0 1
materials/halo/characters/brute/halo_0.vmat
0 0.46194 -0.191342 0.5 0 0 1 0.96194 0.308658 1 0 1
0 -0.353553 -0.353553 0.5 0 0 1 0.146447 0.146447 1 0 1
0 -0.191342 -0.46194 0.5 0 0 1 0.308658 0.03806 1 0 1
materials/halo/characters/brute/halo_0.vmat
0 0.46194 -0.191342 0.5 0 0 1 0.96194 0.308658 1 0 1
0 -0.191342 -0.46194 0.5 0 0 1 0.308658 0.03806 1 0 1
0 0 -0.5 0.5 0 0 1 0.5 0 1 0 1
materials/halo/characters/brute/halo_0.vmat
0 0.46194 -0.191342 0.5 0 0 1 0.96194 0.308658 1 0 1
0 0 -0.5 0.5 0 0 1 0.5 0 1 0 1
0 0.191342 -0.46194 0.5 0 0 1 0.691342 0.03806 1 0 1
materials/halo/characters/brute/halo_0.vmat
0 0.191342 -0.46194 0.5 0 0 1 0.691342 0.03806 1 0 1
0 0.353554 -0.353553 0.5 0 0 1 0.853554 0.146447 1 0 1
0 0.46194 -0.191342 0.5 0 0 1 0.96194 0.308658 1 0 1
end
